<svg width="374" height="64" viewBox="0 0 374 64" fill="none" xmlns="http://www.w3.org/2000/svg">
<g filter="url(#filter0_f_313_896)">
<path d="M49.8179 24.9128V49.2533C49.8179 51.2208 48.2306 52.8157 46.2695 52.8157H35.7046C35.6809 52.5143 35.6715 52.2057 35.6715 51.8996C35.6715 51.5293 35.688 51.1615 35.7211 50.7984C35.8891 48.914 36.7384 47.1648 38.0584 45.8144C38.1199 45.7527 38.1814 45.6886 38.2405 45.6246C39.1986 44.6064 40.0006 43.4388 40.6109 42.1619C41.4058 40.4911 41.8718 38.6328 41.9191 36.6677C42.1107 29.0494 35.9482 22.7649 28.409 22.7626C20.8721 22.7649 14.7096 29.0494 14.9012 36.6677C14.9485 38.6328 15.4146 40.4911 16.2094 42.1619C16.8197 43.4388 17.6217 44.6064 18.5798 45.6246C18.6389 45.6886 18.7004 45.7527 18.7619 45.8144C20.0819 47.1648 20.9312 48.914 21.0992 50.7984C21.1323 51.1615 21.1488 51.5293 21.1488 51.8996C21.1488 52.2057 21.1394 52.5143 21.1157 52.8157H10.5508C8.5897 52.8157 7 51.2208 7 49.2533V24.9128C7 23.8021 7.51807 22.7531 8.39809 22.0814L26.2586 8.42071C27.529 7.44765 29.2913 7.44765 30.5617 8.42071L48.4222 22.0814C49.3022 22.7531 49.8179 23.8021 49.8179 24.9128Z" fill="url(#paint0_linear_313_896)"/>
</g>
<path d="M49.8179 24.9128V49.2533C49.8179 51.2208 48.2306 52.8157 46.2695 52.8157H35.7046C35.6809 52.5143 35.6715 52.2057 35.6715 51.8996C35.6715 51.5293 35.688 51.1615 35.7211 50.7984C35.8891 48.914 36.7384 47.1648 38.0584 45.8144C38.1199 45.7527 38.1814 45.6886 38.2405 45.6246C39.1986 44.6064 40.0006 43.4388 40.6109 42.1619C41.4058 40.4911 41.8718 38.6328 41.9191 36.6677C42.1107 29.0494 35.9482 22.7649 28.409 22.7626C20.8721 22.7649 14.7096 29.0494 14.9012 36.6677C14.9485 38.6328 15.4146 40.4911 16.2094 42.1619C16.8197 43.4388 17.6217 44.6064 18.5798 45.6246C18.6389 45.6886 18.7004 45.7527 18.7619 45.8144C20.0819 47.1648 20.9312 48.914 21.0992 50.7984C21.1323 51.1615 21.1488 51.5293 21.1488 51.8996C21.1488 52.2057 21.1394 52.5143 21.1157 52.8157H10.5508C8.5897 52.8157 7 51.2208 7 49.2533V24.9128C7 23.8021 7.51807 22.7531 8.39809 22.0814L26.2586 8.42071C27.529 7.44765 29.2913 7.44765 30.5617 8.42071L48.4222 22.0814C49.3022 22.7531 49.8179 23.8021 49.8179 24.9128Z" fill="url(#paint1_linear_313_896)"/>
<path d="M26.4648 8.68994C27.5417 7.86508 29.009 7.81392 30.1348 8.53564L30.3555 8.68994L48.2158 22.3511H48.2168C49.0119 22.958 49.4785 23.9069 49.4785 24.9126V49.2534C49.4785 51.0349 48.042 52.477 46.2695 52.4771H36.0254C36.0165 52.2862 36.0107 52.0931 36.0107 51.8999C36.0107 51.5399 36.0265 51.1821 36.0586 50.8296V50.8286C36.2191 49.0282 37.0302 47.3511 38.2979 46.0532L38.2988 46.0542C38.3632 45.9896 38.4272 45.9222 38.4893 45.855L38.4883 45.854C39.4695 44.8109 40.2919 43.6158 40.917 42.3081V42.3071C41.7316 40.5946 42.2093 38.69 42.2578 36.6763C42.4542 28.8677 36.1391 22.4258 28.4092 22.4233C20.6815 22.4258 14.3661 28.8677 14.5625 36.6763C14.611 38.69 15.0887 40.5946 15.9033 42.3071V42.3081C16.5283 43.6156 17.3501 44.811 18.3311 45.854V45.855C18.3929 45.922 18.4573 45.9888 18.5215 46.0532C19.7894 47.3511 20.6012 49.028 20.7617 50.8286V50.8296C20.7939 51.1821 20.8096 51.5399 20.8096 51.8999C20.8096 52.0931 20.8038 52.2862 20.7949 52.4771H10.5508C8.778 52.477 7.33891 51.0346 7.33887 49.2534V24.9126C7.33892 23.9074 7.80803 22.9583 8.60352 22.3511H8.60449L26.4648 8.68994Z" stroke="url(#paint2_linear_313_896)" stroke-opacity="0.75" stroke-width="0.678096"/>
<g filter="url(#filter1_f_313_896)">
<path d="M34.3685 53.7412H22.2187C21.6542 53.7412 21.1967 54.2003 21.1967 54.7665V54.7689C21.1967 55.3352 21.6542 55.7943 22.2187 55.7943H34.3685C34.933 55.7943 35.3905 55.3352 35.3905 54.7689V54.7665C35.3905 54.2003 34.933 53.7412 34.3685 53.7412Z" fill="url(#paint3_linear_313_896)"/>
<path d="M34.3686 56.719H22.2187C21.6543 56.719 21.1968 57.1781 21.1968 57.7443V57.7467C21.1968 58.313 21.6543 58.772 22.2187 58.772H34.3686C34.933 58.772 35.3906 58.313 35.3906 57.7467V57.7443C35.3906 57.1781 34.933 56.719 34.3686 56.719Z" fill="url(#paint4_linear_313_896)"/>
<mask id="path-6-inside-1_313_896" fill="white">
<path d="M30.8956 59.6981C30.8956 61.1411 29.7317 62.3088 28.2934 62.3088C26.8551 62.3088 25.6912 61.1411 25.6912 59.6981"/>
</mask>
<path d="M30.8956 59.6981C30.8956 61.1411 29.7317 62.3088 28.2934 62.3088C26.8551 62.3088 25.6912 61.1411 25.6912 59.6981" fill="url(#paint5_linear_313_896)"/>
<path d="M30.8956 59.6981H30.7536C30.7536 61.0631 29.6529 62.1668 28.2934 62.1668V62.3088V62.4507C29.8105 62.4507 31.0375 61.219 31.0375 59.6981H30.8956ZM28.2934 62.3088V62.1668C26.9339 62.1668 25.8331 61.0631 25.8331 59.6981H25.6912H25.5493C25.5493 61.219 26.7763 62.4507 28.2934 62.4507V62.3088Z" fill="white" fill-opacity="0.2" mask="url(#path-6-inside-1_313_896)"/>
</g>
<path d="M34.37 53.7415H22.2201C21.6557 53.7415 21.1982 54.2005 21.1982 54.7668V54.7692C21.1982 55.3354 21.6557 55.7945 22.2201 55.7945H34.37C34.9344 55.7945 35.392 55.3354 35.392 54.7692V54.7668C35.392 54.2005 34.9344 53.7415 34.37 53.7415Z" fill="url(#paint6_linear_313_896)"/>
<path d="M22.2197 53.8127H34.3701C34.895 53.8128 35.3212 54.2396 35.3212 54.7668V54.7688C35.3212 55.2961 34.895 55.7239 34.3701 55.7239H22.2197C21.6949 55.7236 21.2695 55.2959 21.2695 54.7688V54.7668C21.2695 54.2397 21.6949 53.813 22.2197 53.8127Z" stroke="white" stroke-opacity="0.75" stroke-width="0.141927"/>
<path d="M34.37 56.72H22.2201C21.6557 56.72 21.1982 57.179 21.1982 57.7453V57.7477C21.1982 58.314 21.6557 58.773 22.2201 58.773H34.37C34.9344 58.773 35.392 58.314 35.392 57.7477V57.7453C35.392 57.179 34.9344 56.72 34.37 56.72Z" fill="url(#paint7_linear_313_896)"/>
<path d="M22.2197 56.7913H34.3701C34.895 56.7913 35.3212 57.2181 35.3212 57.7454V57.7473C35.3212 58.2746 34.895 58.7024 34.3701 58.7024H22.2197C21.6949 58.7021 21.2695 58.2745 21.2695 57.7473V57.7454C21.2695 57.2182 21.6949 56.7915 22.2197 56.7913Z" stroke="white" stroke-opacity="0.5" stroke-width="0.141927"/>
<mask id="path-12-inside-2_313_896" fill="white">
<path d="M30.8965 59.6985C30.8965 61.1415 29.7326 62.3091 28.2943 62.3091C26.856 62.3091 25.6921 61.1415 25.6921 59.6985"/>
</mask>
<path d="M30.8965 59.6985C30.8965 61.1415 29.7326 62.3091 28.2943 62.3091C26.856 62.3091 25.6921 61.1415 25.6921 59.6985" fill="url(#paint8_linear_313_896)"/>
<path d="M30.8965 59.6985H30.7546C30.7546 61.0635 29.6538 62.1672 28.2943 62.1672V62.3091V62.451C29.8114 62.451 31.0384 61.2194 31.0384 59.6985H30.8965ZM28.2943 62.3091V62.1672C26.9348 62.1672 25.834 61.0635 25.834 59.6985H25.6921H25.5502C25.5502 61.2194 26.7772 62.451 28.2943 62.451V62.3091Z" fill="white" fill-opacity="0.5" mask="url(#path-12-inside-2_313_896)"/>
<g filter="url(#filter2_f_313_896)">
<path d="M33.506 40.2463L30.9163 52.8272H24.9356L28.5601 44.5293C28.6739 44.2629 28.4414 43.9805 28.149 44.029L23.0877 44.8769C22.7798 44.9278 22.5456 44.6136 22.6922 44.3456L26.8643 36.7031H23.5127C23.2457 36.7031 23.1245 36.3801 23.3284 36.2131L29.8392 30.8691C30.0021 30.7363 30.2527 30.8159 30.3026 31.0163L31.6292 36.3603C31.6726 36.5344 31.5358 36.7031 31.3508 36.7031H28.9196L28.154 40.4221C28.0999 40.6838 28.3439 40.9113 28.6109 40.8492L33.0507 39.8137C33.3201 39.7508 33.565 39.9831 33.506 40.2463Z" fill="url(#paint9_radial_313_896)"/>
</g>
<path d="M33.506 40.2463L30.9163 52.8272H24.9356L28.5601 44.5293C28.6739 44.2629 28.4414 43.9805 28.149 44.029L23.0877 44.8769C22.7798 44.9278 22.5456 44.6136 22.6922 44.3456L26.8643 36.7031H23.5127C23.2457 36.7031 23.1245 36.3801 23.3284 36.2131L29.8392 30.8691C30.0021 30.7363 30.2527 30.8159 30.3026 31.0163L31.6292 36.3603C31.6726 36.5344 31.5358 36.7031 31.3508 36.7031H28.9196L28.154 40.4221C28.0999 40.6838 28.3439 40.9113 28.6109 40.8492L33.0507 39.8137C33.3201 39.7508 33.565 39.9831 33.506 40.2463Z" fill="url(#paint10_radial_313_896)"/>
<line x1="22.4122" y1="53.7497" x2="34.4012" y2="53.7497" stroke="url(#paint11_linear_313_896)" stroke-width="0.141927"/>
<g filter="url(#filter3_d_313_896)">
<mask id="path-17-outside-3_313_896" maskUnits="userSpaceOnUse" x="76.1533" y="15" width="296" height="39" fill="black">
<rect fill="white" x="76.1533" y="15" width="296" height="39"/>
<path d="M91.3507 52.3547C88.7496 52.3547 86.4187 51.9324 84.3581 51.0879C82.2975 50.2434 80.6422 48.9935 79.3924 47.3383C78.1763 45.683 77.5344 43.69 77.4669 41.3591H86.6889C86.8241 42.6766 87.2801 43.69 88.0571 44.3994C88.834 45.075 89.8474 45.4128 91.0973 45.4128C92.381 45.4128 93.3944 45.1257 94.1375 44.5514C94.8807 43.9434 95.2523 43.1157 95.2523 42.0685C95.2523 41.1902 94.9483 40.464 94.3402 39.8897C93.766 39.3154 93.0397 38.8425 92.1614 38.4709C91.3169 38.0993 90.1008 37.6771 88.5131 37.2041C86.216 36.4948 84.3412 35.7854 82.8886 35.076C81.4361 34.3666 80.1862 33.3194 79.139 31.9344C78.0918 30.5494 77.5682 28.7421 77.5682 26.5126C77.5682 23.2021 78.7674 20.6179 81.1658 18.76C83.5642 16.8683 86.6889 15.9224 90.5399 15.9224C94.4585 15.9224 97.6169 16.8683 100.015 18.76C102.414 20.6179 103.697 23.219 103.866 26.5633H94.4922C94.4247 25.4148 94.0024 24.5196 93.2255 23.8777C92.4485 23.2021 91.452 22.8643 90.2359 22.8643C89.1887 22.8643 88.3442 23.1515 87.7024 23.7257C87.0605 24.2662 86.7396 25.0601 86.7396 26.1073C86.7396 27.2558 87.2801 28.151 88.3611 28.7928C89.4421 29.4346 91.1311 30.1271 93.4282 30.8703C95.7252 31.6473 97.5832 32.3904 99.0019 33.0998C100.454 33.8092 101.704 34.8395 102.752 36.1907C103.799 37.5419 104.322 39.2816 104.322 41.4098C104.322 43.4366 103.799 45.2777 102.752 46.9329C101.738 48.5882 100.252 49.9056 98.2925 50.8852C96.3333 51.8649 94.0193 52.3547 91.3507 52.3547ZM138.284 27.8807C138.284 29.9413 137.811 31.833 136.865 33.5559C135.919 35.2449 134.466 36.613 132.507 37.6602C130.548 38.7074 128.116 39.231 125.211 39.231H119.839V52H111.175V16.4291H125.211C128.048 16.4291 130.447 16.919 132.406 17.8986C134.365 18.8782 135.835 20.2294 136.814 21.9523C137.794 23.6751 138.284 25.6512 138.284 27.8807ZM124.552 32.3398C126.207 32.3398 127.44 31.9513 128.251 31.1743C129.062 30.3974 129.467 29.2995 129.467 27.8807C129.467 26.4619 129.062 25.3641 128.251 24.5871C127.44 23.8102 126.207 23.4217 124.552 23.4217H119.839V32.3398H124.552ZM166.458 45.7168H153.182L151.054 52H141.984L154.854 16.4291H164.887L177.757 52H168.586L166.458 45.7168ZM164.228 39.0283L159.82 26.0059L155.462 39.0283H164.228ZM201.335 52L193.937 38.5723H191.859V52H183.195V16.4291H197.737C200.541 16.4291 202.922 16.919 204.882 17.8986C206.875 18.8782 208.361 20.2294 209.341 21.9523C210.32 23.6413 210.81 25.533 210.81 27.6274C210.81 29.992 210.134 32.1033 208.783 33.9612C207.466 35.8191 205.507 37.1366 202.905 37.9135L211.114 52H201.335ZM191.859 32.4411H197.23C198.818 32.4411 200 32.0526 200.777 31.2757C201.588 30.4987 201.993 29.4009 201.993 27.9821C201.993 26.6309 201.588 25.5668 200.777 24.7898C200 24.0129 198.818 23.6244 197.23 23.6244H191.859V32.4411ZM238.392 52L226.434 36.2921V52H217.769V16.4291H226.434V32.0357L238.291 16.4291H248.476L234.693 33.8599L248.983 52H238.392Z"/>
<path d="M297.686 16.4291V52H289.022V37.3562H275.543V52H266.878V16.4291H275.543V30.3636H289.022V16.4291H297.686ZM313.974 16.4291V37.7109C313.974 39.839 314.498 41.4774 315.545 42.6259C316.592 43.7745 318.129 44.3487 320.156 44.3487C322.183 44.3487 323.737 43.7745 324.818 42.6259C325.899 41.4774 326.439 39.839 326.439 37.7109V16.4291H335.104V37.6602C335.104 40.8355 334.428 43.5211 333.077 45.7168C331.726 47.9126 329.902 49.5678 327.605 50.6826C325.341 51.7973 322.808 52.3547 320.004 52.3547C317.2 52.3547 314.683 51.8142 312.454 50.7332C310.258 49.6185 308.519 47.9632 307.235 45.7675C305.951 43.538 305.309 40.8355 305.309 37.6602V16.4291H313.974ZM364.243 33.7585C366.304 34.1977 367.959 35.228 369.209 36.8494C370.459 38.4371 371.084 40.2613 371.084 42.3219C371.084 45.2946 370.037 47.6592 367.942 49.4158C365.882 51.1386 362.994 52 359.278 52H342.708V16.4291H358.72C362.335 16.4291 365.156 17.2568 367.182 18.912C369.243 20.5673 370.273 22.8137 370.273 25.6512C370.273 27.7456 369.716 29.4853 368.601 30.8703C367.52 32.2553 366.068 33.218 364.243 33.7585ZM351.373 30.8196H357.048C358.467 30.8196 359.548 30.5156 360.291 29.9076C361.068 29.2657 361.457 28.3368 361.457 27.1207C361.457 25.9046 361.068 24.9756 360.291 24.3338C359.548 23.6919 358.467 23.371 357.048 23.371H351.373V30.8196ZM357.758 45.0074C359.21 45.0074 360.325 44.6865 361.102 44.0447C361.913 43.3691 362.318 42.4063 362.318 41.1565C362.318 39.9066 361.896 38.9269 361.051 38.2176C360.24 37.5082 359.109 37.1535 357.656 37.1535H351.373V45.0074H357.758Z"/>
</mask>
<path d="M91.3507 52.3547C88.7496 52.3547 86.4187 51.9324 84.3581 51.0879C82.2975 50.2434 80.6422 48.9935 79.3924 47.3383C78.1763 45.683 77.5344 43.69 77.4669 41.3591H86.6889C86.8241 42.6766 87.2801 43.69 88.0571 44.3994C88.834 45.075 89.8474 45.4128 91.0973 45.4128C92.381 45.4128 93.3944 45.1257 94.1375 44.5514C94.8807 43.9434 95.2523 43.1157 95.2523 42.0685C95.2523 41.1902 94.9483 40.464 94.3402 39.8897C93.766 39.3154 93.0397 38.8425 92.1614 38.4709C91.3169 38.0993 90.1008 37.6771 88.5131 37.2041C86.216 36.4948 84.3412 35.7854 82.8886 35.076C81.4361 34.3666 80.1862 33.3194 79.139 31.9344C78.0918 30.5494 77.5682 28.7421 77.5682 26.5126C77.5682 23.2021 78.7674 20.6179 81.1658 18.76C83.5642 16.8683 86.6889 15.9224 90.5399 15.9224C94.4585 15.9224 97.6169 16.8683 100.015 18.76C102.414 20.6179 103.697 23.219 103.866 26.5633H94.4922C94.4247 25.4148 94.0024 24.5196 93.2255 23.8777C92.4485 23.2021 91.452 22.8643 90.2359 22.8643C89.1887 22.8643 88.3442 23.1515 87.7024 23.7257C87.0605 24.2662 86.7396 25.0601 86.7396 26.1073C86.7396 27.2558 87.2801 28.151 88.3611 28.7928C89.4421 29.4346 91.1311 30.1271 93.4282 30.8703C95.7252 31.6473 97.5832 32.3904 99.0019 33.0998C100.454 33.8092 101.704 34.8395 102.752 36.1907C103.799 37.5419 104.322 39.2816 104.322 41.4098C104.322 43.4366 103.799 45.2777 102.752 46.9329C101.738 48.5882 100.252 49.9056 98.2925 50.8852C96.3333 51.8649 94.0193 52.3547 91.3507 52.3547ZM138.284 27.8807C138.284 29.9413 137.811 31.833 136.865 33.5559C135.919 35.2449 134.466 36.613 132.507 37.6602C130.548 38.7074 128.116 39.231 125.211 39.231H119.839V52H111.175V16.4291H125.211C128.048 16.4291 130.447 16.919 132.406 17.8986C134.365 18.8782 135.835 20.2294 136.814 21.9523C137.794 23.6751 138.284 25.6512 138.284 27.8807ZM124.552 32.3398C126.207 32.3398 127.44 31.9513 128.251 31.1743C129.062 30.3974 129.467 29.2995 129.467 27.8807C129.467 26.4619 129.062 25.3641 128.251 24.5871C127.44 23.8102 126.207 23.4217 124.552 23.4217H119.839V32.3398H124.552ZM166.458 45.7168H153.182L151.054 52H141.984L154.854 16.4291H164.887L177.757 52H168.586L166.458 45.7168ZM164.228 39.0283L159.82 26.0059L155.462 39.0283H164.228ZM201.335 52L193.937 38.5723H191.859V52H183.195V16.4291H197.737C200.541 16.4291 202.922 16.919 204.882 17.8986C206.875 18.8782 208.361 20.2294 209.341 21.9523C210.32 23.6413 210.81 25.533 210.81 27.6274C210.81 29.992 210.134 32.1033 208.783 33.9612C207.466 35.8191 205.507 37.1366 202.905 37.9135L211.114 52H201.335ZM191.859 32.4411H197.23C198.818 32.4411 200 32.0526 200.777 31.2757C201.588 30.4987 201.993 29.4009 201.993 27.9821C201.993 26.6309 201.588 25.5668 200.777 24.7898C200 24.0129 198.818 23.6244 197.23 23.6244H191.859V32.4411ZM238.392 52L226.434 36.2921V52H217.769V16.4291H226.434V32.0357L238.291 16.4291H248.476L234.693 33.8599L248.983 52H238.392Z" fill="url(#paint12_linear_313_896)" shape-rendering="crispEdges"/>
<path d="M297.686 16.4291V52H289.022V37.3562H275.543V52H266.878V16.4291H275.543V30.3636H289.022V16.4291H297.686ZM313.974 16.4291V37.7109C313.974 39.839 314.498 41.4774 315.545 42.6259C316.592 43.7745 318.129 44.3487 320.156 44.3487C322.183 44.3487 323.737 43.7745 324.818 42.6259C325.899 41.4774 326.439 39.839 326.439 37.7109V16.4291H335.104V37.6602C335.104 40.8355 334.428 43.5211 333.077 45.7168C331.726 47.9126 329.902 49.5678 327.605 50.6826C325.341 51.7973 322.808 52.3547 320.004 52.3547C317.2 52.3547 314.683 51.8142 312.454 50.7332C310.258 49.6185 308.519 47.9632 307.235 45.7675C305.951 43.538 305.309 40.8355 305.309 37.6602V16.4291H313.974ZM364.243 33.7585C366.304 34.1977 367.959 35.228 369.209 36.8494C370.459 38.4371 371.084 40.2613 371.084 42.3219C371.084 45.2946 370.037 47.6592 367.942 49.4158C365.882 51.1386 362.994 52 359.278 52H342.708V16.4291H358.72C362.335 16.4291 365.156 17.2568 367.182 18.912C369.243 20.5673 370.273 22.8137 370.273 25.6512C370.273 27.7456 369.716 29.4853 368.601 30.8703C367.52 32.2553 366.068 33.218 364.243 33.7585ZM351.373 30.8196H357.048C358.467 30.8196 359.548 30.5156 360.291 29.9076C361.068 29.2657 361.457 28.3368 361.457 27.1207C361.457 25.9046 361.068 24.9756 360.291 24.3338C359.548 23.6919 358.467 23.371 357.048 23.371H351.373V30.8196ZM357.758 45.0074C359.21 45.0074 360.325 44.6865 361.102 44.0447C361.913 43.3691 362.318 42.4063 362.318 41.1565C362.318 39.9066 361.896 38.9269 361.051 38.2176C360.24 37.5082 359.109 37.1535 357.656 37.1535H351.373V45.0074H357.758Z" fill="url(#paint13_linear_313_896)" shape-rendering="crispEdges"/>
<path d="M84.3581 51.0879L84.1009 51.7154L84.3581 51.0879ZM79.3924 47.3383L78.8458 47.7398L78.8512 47.7469L79.3924 47.3383ZM77.4669 41.3591V40.681H76.7688L76.7891 41.3788L77.4669 41.3591ZM86.6889 41.3591L87.3635 41.29L87.301 40.681H86.6889V41.3591ZM88.0571 44.3994L87.5998 44.9002L87.6059 44.9057L87.6121 44.9111L88.0571 44.3994ZM94.1375 44.5514L94.5522 45.088L94.5596 45.0822L94.5669 45.0762L94.1375 44.5514ZM94.3402 39.8897L93.8607 40.3692L93.8676 40.376L93.8746 40.3827L94.3402 39.8897ZM92.1614 38.4709L91.8883 39.0916L91.8972 39.0954L92.1614 38.4709ZM88.5131 37.2041L88.313 37.8521L88.3195 37.854L88.5131 37.2041ZM82.8886 35.076L82.5911 35.6853L82.8886 35.076ZM79.139 31.9344L79.6799 31.5254L79.139 31.9344ZM81.1658 18.76L81.5811 19.2961L81.5858 19.2924L81.1658 18.76ZM100.015 18.76L99.5954 19.2924L99.6001 19.2961L100.015 18.76ZM103.866 26.5633V27.2414H104.58L104.544 26.5291L103.866 26.5633ZM94.4922 26.5633L93.8153 26.6031L93.8529 27.2414H94.4922V26.5633ZM93.2255 23.8777L92.7805 24.3894L92.787 24.3951L92.7936 24.4005L93.2255 23.8777ZM87.7024 23.7257L88.1391 24.2444L88.1469 24.2379L88.1545 24.2311L87.7024 23.7257ZM88.3611 28.7928L88.7073 28.2097L88.3611 28.7928ZM93.4282 30.8703L93.6454 30.2279L93.6369 30.2251L93.4282 30.8703ZM99.0019 33.0998L98.6987 33.7063L98.7044 33.7091L99.0019 33.0998ZM102.752 36.1907L102.216 36.6061L102.752 36.1907ZM102.752 46.9329L102.178 46.5704L102.173 46.5789L102.752 46.9329ZM98.2925 50.8852L97.9893 50.2787L98.2925 50.8852ZM91.3507 52.3547V51.6766C88.8231 51.6766 86.5817 51.2664 84.6152 50.4605L84.3581 51.0879L84.1009 51.7154C86.2557 52.5985 88.676 53.0328 91.3507 53.0328V52.3547ZM84.3581 51.0879L84.6152 50.4605C82.6586 49.6586 81.1047 48.4807 79.9335 46.9297L79.3924 47.3383L78.8512 47.7469C80.1798 49.5064 81.9363 50.8282 84.1009 51.7154L84.3581 51.0879ZM79.3924 47.3383L79.9388 46.9368C78.815 45.4072 78.2088 43.552 78.1447 41.3395L77.4669 41.3591L76.7891 41.3788C76.8601 43.828 77.5375 45.9589 78.8459 47.7398L79.3924 47.3383ZM77.4669 41.3591V42.0372H86.6889V41.3591V40.681H77.4669V41.3591ZM86.6889 41.3591L86.0144 41.4283C86.1619 42.867 86.6705 44.0516 87.5998 44.9002L88.0571 44.3994L88.5143 43.8986C87.8897 43.3284 87.4862 42.4862 87.3635 41.29L86.6889 41.3591ZM88.0571 44.3994L87.6121 44.9111C88.5375 45.7158 89.7204 46.0909 91.0973 46.0909V45.4128V44.7347C89.9744 44.7347 89.1305 44.4342 88.502 43.8877L88.0571 44.3994ZM91.0973 45.4128V46.0909C92.4766 46.0909 93.6534 45.7825 94.5522 45.088L94.1375 44.5514L93.7229 44.0148C93.1353 44.4689 92.2853 44.7347 91.0973 44.7347V45.4128ZM94.1375 44.5514L94.5669 45.0762C95.4831 44.3267 95.9304 43.2981 95.9304 42.0685H95.2523H94.5742C94.5742 42.9333 94.2784 43.5601 93.7081 44.0266L94.1375 44.5514ZM95.2523 42.0685H95.9304C95.9304 41.0142 95.557 40.1061 94.8058 39.3967L94.3402 39.8897L93.8746 40.3827C94.3396 40.8218 94.5742 41.3663 94.5742 42.0685H95.2523ZM94.3402 39.8897L94.8197 39.4102C94.1739 38.7644 93.3705 38.2462 92.4256 37.8464L92.1614 38.4709L91.8972 39.0954C92.7088 39.4388 93.358 39.8664 93.8607 40.3692L94.3402 39.8897ZM92.1614 38.4709L92.4345 37.8502C91.5514 37.4617 90.3038 37.03 88.7067 36.5543L88.5131 37.2041L88.3195 37.854C89.8978 38.3241 91.0823 38.737 91.8883 39.0916L92.1614 38.4709ZM88.5131 37.2041L88.7132 36.5562C86.4351 35.8527 84.5962 35.1552 83.1862 34.4667L82.8886 35.076L82.5911 35.6853C84.0862 36.4155 85.9969 37.1368 88.313 37.852L88.5131 37.2041ZM82.8886 35.076L83.1862 34.4667C81.8364 33.8074 80.6677 32.8319 79.6799 31.5254L79.139 31.9344L78.5981 32.3434C79.7047 33.8069 81.0358 34.9257 82.5911 35.6853L82.8886 35.076ZM79.139 31.9344L79.6799 31.5254C78.7442 30.2879 78.2463 28.6367 78.2463 26.5126H77.5682H76.8901C76.8901 28.8475 77.4394 30.8109 78.5981 32.3434L79.139 31.9344ZM77.5682 26.5126H78.2463C78.2463 23.3899 79.3651 21.0127 81.5811 19.2961L81.1658 18.76L80.7506 18.2239C78.1697 20.2232 76.8901 23.0144 76.8901 26.5126H77.5682ZM81.1658 18.76L81.5858 19.2924C83.8362 17.5174 86.8009 16.6005 90.5399 16.6005V15.9224V15.2443C86.577 15.2443 83.2923 16.2192 80.7459 18.2276L81.1658 18.76ZM90.5399 15.9224V16.6005C94.3497 16.6005 97.3469 17.5189 99.5954 19.2924L100.015 18.76L100.435 18.2276C97.887 16.2176 94.5672 15.2443 90.5399 15.2443V15.9224ZM100.015 18.76L99.6001 19.2961C101.825 21.0194 103.029 23.4277 103.189 26.5975L103.866 26.5633L104.544 26.5291C104.366 23.0104 103.003 20.2164 100.431 18.2239L100.015 18.76ZM103.866 26.5633V25.8852H94.4922V26.5633V27.2414H103.866V26.5633ZM94.4922 26.5633L95.1692 26.5235C95.0923 25.2162 94.6007 24.1342 93.6573 23.355L93.2255 23.8777L92.7936 24.4005C93.4042 24.9049 93.7571 25.6133 93.8153 26.6031L94.4922 26.5633ZM93.2255 23.8777L93.6704 23.366C92.7484 22.5643 91.5843 22.1862 90.2359 22.1862V22.8643V23.5424C91.3197 23.5424 92.1486 23.84 92.7805 24.3894L93.2255 23.8777ZM90.2359 22.8643V22.1862C89.0596 22.1862 88.0419 22.512 87.2502 23.2204L87.7024 23.7257L88.1545 24.2311C88.6465 23.7909 89.3178 23.5424 90.2359 23.5424V22.8643ZM87.7024 23.7257L87.2656 23.207C86.4338 23.9075 86.0615 24.914 86.0615 26.1073H86.7396H87.4177C87.4177 25.2061 87.6873 24.6249 88.1391 24.2444L87.7024 23.7257ZM86.7396 26.1073H86.0615C86.0615 27.5212 86.7516 28.6258 88.0149 29.3759L88.3611 28.7928L88.7073 28.2097C87.8086 27.6761 87.4177 26.9904 87.4177 26.1073H86.7396ZM88.3611 28.7928L88.0149 29.3759C89.1625 30.0572 90.9097 30.7682 93.2194 31.5155L93.4282 30.8703L93.6369 30.2251C91.3525 29.4861 89.7216 28.812 88.7073 28.2097L88.3611 28.7928ZM93.4282 30.8703L93.2109 31.5126C95.4922 32.2843 97.3182 33.0161 98.6987 33.7063L99.0019 33.0998L99.3052 32.4933C97.8482 31.7648 95.9583 31.0103 93.6454 30.228L93.4282 30.8703ZM99.0019 33.0998L98.7044 33.7091C100.058 34.3704 101.228 35.3321 102.216 36.6061L102.752 36.1907L103.288 35.7753C102.181 34.3469 100.851 33.2481 99.2995 32.4905L99.0019 33.0998ZM102.752 36.1907L102.216 36.6061C103.15 37.8118 103.644 39.3944 103.644 41.4098H104.322H105C105 39.1688 104.448 37.2721 103.288 35.7753L102.752 36.1907ZM104.322 41.4098H103.644C103.644 43.313 103.155 45.0275 102.179 46.5704L102.752 46.9329L103.325 47.2955C104.443 45.5278 105 43.5603 105 41.4098H104.322ZM102.752 46.9329L102.173 46.5789C101.234 48.1124 99.8501 49.3484 97.9893 50.2787L98.2925 50.8852L98.5958 51.4918C100.654 50.4629 102.242 49.0639 103.33 47.287L102.752 46.9329ZM98.2925 50.8852L97.9893 50.2787C96.1425 51.2021 93.9367 51.6766 91.3507 51.6766V52.3547V53.0328C94.1019 53.0328 96.524 52.5276 98.5958 51.4918L98.2925 50.8852ZM136.865 33.5559L137.457 33.8872L137.459 33.8822L136.865 33.5559ZM132.507 37.6602L132.188 37.0621V37.0621L132.507 37.6602ZM119.839 39.231V38.5529H119.161V39.231H119.839ZM119.839 52V52.6781H120.518V52H119.839ZM111.175 52H110.497V52.6781H111.175V52ZM111.175 16.4291V15.751H110.497V16.4291H111.175ZM132.406 17.8986L132.709 17.2921V17.2921L132.406 17.8986ZM119.839 23.4217V22.7436H119.161V23.4217H119.839ZM119.839 32.3398H119.161V33.0178H119.839V32.3398ZM138.284 27.8807H137.606C137.606 29.833 137.159 31.6116 136.27 33.2295L136.865 33.5559L137.459 33.8822C138.463 32.0545 138.962 30.0497 138.962 27.8807H138.284ZM136.865 33.5559L136.273 33.2245C135.4 34.7845 134.05 36.0668 132.188 37.0621L132.507 37.6602L132.827 38.2582C134.883 37.1592 136.438 35.7052 137.456 33.8872L136.865 33.5559ZM132.507 37.6602L132.188 37.0621C130.352 38.0431 128.037 38.5529 125.211 38.5529V39.231V39.9091C128.194 39.9091 130.744 39.3717 132.827 38.2582L132.507 37.6602ZM125.211 39.231V38.5529H119.839V39.231V39.9091H125.211V39.231ZM119.839 39.231H119.161V52H119.839H120.518V39.231H119.839ZM119.839 52V51.3219H111.175V52V52.6781H119.839V52ZM111.175 52H111.853V16.4291H111.175H110.497V52H111.175ZM111.175 16.4291V17.1072H125.211V16.4291V15.751H111.175V16.4291ZM125.211 16.4291V17.1072C127.973 17.1072 130.261 17.5843 132.103 18.5051L132.406 17.8986L132.709 17.2921C130.632 16.2536 128.123 15.751 125.211 15.751V16.4291ZM132.406 17.8986L132.103 18.5051C133.955 19.4312 135.318 20.6936 136.225 22.2874L136.814 21.9523L137.404 21.6171C136.351 19.7653 134.775 18.3252 132.709 17.2921L132.406 17.8986ZM136.814 21.9523L136.225 22.2874C137.139 23.8958 137.606 25.7538 137.606 27.8807H138.284H138.962C138.962 25.5487 138.448 23.4543 137.404 21.6171L136.814 21.9523ZM124.552 32.3398V33.0178C126.3 33.0178 127.734 32.6086 128.72 31.6639L128.251 31.1743L127.782 30.6847C127.146 31.2939 126.114 31.6617 124.552 31.6617V32.3398ZM128.251 31.1743L128.72 31.6639C129.697 30.7273 130.145 29.4328 130.145 27.8807H129.467H128.789C128.789 29.1663 128.426 30.0675 127.782 30.6847L128.251 31.1743ZM129.467 27.8807H130.145C130.145 26.3287 129.697 25.0342 128.72 24.0976L128.251 24.5871L127.782 25.0767C128.426 25.694 128.789 26.5952 128.789 27.8807H129.467ZM128.251 24.5871L128.72 24.0976C127.734 23.1528 126.3 22.7436 124.552 22.7436V23.4217V24.0998C126.114 24.0998 127.146 24.4675 127.782 25.0767L128.251 24.5871ZM124.552 23.4217V22.7436H119.839V23.4217V24.0998H124.552V23.4217ZM119.839 23.4217H119.161V32.3398H119.839H120.518V23.4217H119.839ZM119.839 32.3398V33.0178H124.552V32.3398V31.6617H119.839V32.3398ZM166.458 45.7168L167.1 45.4993L166.944 45.0387H166.458V45.7168ZM153.182 45.7168V45.0387H152.696L152.54 45.4993L153.182 45.7168ZM151.054 52V52.6781H151.54L151.696 52.2175L151.054 52ZM141.984 52L141.346 51.7693L141.017 52.6781H141.984V52ZM154.854 16.4291V15.751H154.378L154.217 16.1984L154.854 16.4291ZM164.887 16.4291L165.525 16.1984L165.363 15.751H164.887V16.4291ZM177.757 52V52.6781H178.724L178.395 51.7693L177.757 52ZM168.586 52L167.944 52.2175L168.1 52.6781H168.586V52ZM164.228 39.0283V39.7064H165.174L164.871 38.8109L164.228 39.0283ZM159.82 26.0059L160.462 25.7885L159.816 23.8802L159.177 25.7907L159.82 26.0059ZM155.462 39.0283L154.819 38.8131L154.52 39.7064H155.462V39.0283ZM166.458 45.7168V45.0387H153.182V45.7168V46.3949H166.458V45.7168ZM153.182 45.7168L152.54 45.4993L150.412 51.7825L151.054 52L151.696 52.2175L153.824 45.9344L153.182 45.7168ZM151.054 52V51.3219H141.984V52V52.6781H151.054V52ZM141.984 52L142.621 52.2307L155.492 16.6599L154.854 16.4291L154.217 16.1984L141.346 51.7693L141.984 52ZM154.854 16.4291V17.1072H164.887V16.4291V15.751H154.854V16.4291ZM164.887 16.4291L164.249 16.6599L177.12 52.2307L177.757 52L178.395 51.7693L165.525 16.1984L164.887 16.4291ZM177.757 52V51.3219H168.586V52V52.6781H177.757V52ZM168.586 52L169.228 51.7825L167.1 45.4993L166.458 45.7168L165.815 45.9344L167.944 52.2175L168.586 52ZM164.228 39.0283L164.871 38.8109L160.462 25.7885L159.82 26.0059L159.178 26.2233L163.586 39.2457L164.228 39.0283ZM159.82 26.0059L159.177 25.7907L154.819 38.8131L155.462 39.0283L156.105 39.2435L160.463 26.2211L159.82 26.0059ZM155.462 39.0283V39.7064H164.228V39.0283V38.3502H155.462V39.0283ZM201.335 52L200.741 52.3272L200.934 52.6781H201.335V52ZM193.937 38.5723L194.531 38.245L194.337 37.8942H193.937V38.5723ZM191.859 38.5723V37.8942H191.181V38.5723H191.859ZM191.859 52V52.6781H192.537V52H191.859ZM183.195 52H182.516V52.6781H183.195V52ZM183.195 16.4291V15.751H182.516V16.4291H183.195ZM204.882 17.8986L204.578 18.5051L204.582 18.5071L204.882 17.8986ZM209.341 21.9523L208.751 22.2874L208.754 22.2925L209.341 21.9523ZM208.783 33.9612L208.235 33.5624L208.23 33.569L208.783 33.9612ZM202.905 37.9135L202.711 37.2638L201.886 37.5104L202.32 38.2549L202.905 37.9135ZM211.114 52V52.6781H212.294L211.7 51.6586L211.114 52ZM191.859 32.4411H191.181V33.1192H191.859V32.4411ZM200.777 31.2757L200.308 30.7861L200.303 30.7911L200.298 30.7962L200.777 31.2757ZM200.777 24.7898L200.298 25.2693L200.303 25.2744L200.308 25.2794L200.777 24.7898ZM191.859 23.6244V22.9463H191.181V23.6244H191.859ZM201.335 52L201.929 51.6728L194.531 38.245L193.937 38.5723L193.343 38.8995L200.741 52.3272L201.335 52ZM193.937 38.5723V37.8942H191.859V38.5723V39.2504H193.937V38.5723ZM191.859 38.5723H191.181V52H191.859H192.537V38.5723H191.859ZM191.859 52V51.3219H183.195V52V52.6781H191.859V52ZM183.195 52H183.873V16.4291H183.195H182.516V52H183.195ZM183.195 16.4291V17.1072H197.737V16.4291V15.751H183.195V16.4291ZM197.737 16.4291V17.1072C200.464 17.1072 202.736 17.5838 204.578 18.5051L204.882 17.8986L205.185 17.2921C203.109 16.2541 200.618 15.751 197.737 15.751V16.4291ZM204.882 17.8986L204.582 18.5071C206.469 19.4343 207.847 20.6968 208.751 22.2874L209.341 21.9523L209.93 21.6171C208.875 19.7621 207.281 18.3221 205.181 17.29L204.882 17.8986ZM209.341 21.9523L208.754 22.2925C209.669 23.8706 210.132 25.6435 210.132 27.6274H210.81H211.488C211.488 25.4225 210.971 23.4119 209.927 21.612L209.341 21.9523ZM210.81 27.6274H210.132C210.132 29.8532 209.499 31.8239 208.235 33.5624L208.783 33.9612L209.332 34.3601C210.77 32.3826 211.488 30.1308 211.488 27.6274H210.81ZM208.783 33.9612L208.23 33.569C207.016 35.2809 205.196 36.5216 202.711 37.2638L202.905 37.9135L203.1 38.5633C205.817 37.7516 207.915 36.3574 209.336 34.3534L208.783 33.9612ZM202.905 37.9135L202.32 38.2549L210.528 52.3414L211.114 52L211.7 51.6586L203.491 37.5721L202.905 37.9135ZM211.114 52V51.3219H201.335V52V52.6781H211.114V52ZM191.859 32.4411V33.1192H197.23V32.4411V31.763H191.859V32.4411ZM197.23 32.4411V33.1192C198.918 33.1192 200.305 32.7066 201.257 31.7552L200.777 31.2757L200.298 30.7962C199.695 31.3987 198.718 31.763 197.23 31.763V32.4411ZM200.777 31.2757L201.246 31.7652C202.224 30.8286 202.671 29.5341 202.671 27.9821H201.993H201.315C201.315 29.2676 200.952 30.1688 200.308 30.7861L200.777 31.2757ZM201.993 27.9821H202.671C202.671 26.4865 202.217 25.2306 201.246 24.3002L200.777 24.7898L200.308 25.2794C200.959 25.9029 201.315 26.7752 201.315 27.9821H201.993ZM200.777 24.7898L201.257 24.3103C200.305 23.3589 198.918 22.9463 197.23 22.9463V23.6244V24.3025C198.718 24.3025 199.695 24.6668 200.298 25.2693L200.777 24.7898ZM197.23 23.6244V22.9463H191.859V23.6244V24.3025H197.23V23.6244ZM191.859 23.6244H191.181V32.4411H191.859H192.537V23.6244H191.859ZM238.392 52L237.853 52.4107L238.056 52.6781H238.392V52ZM226.434 36.2921L226.974 35.8813L225.756 34.2819V36.2921H226.434ZM226.434 52V52.6781H227.112V52H226.434ZM217.769 52H217.091V52.6781H217.769V52ZM217.769 16.4291V15.751H217.091V16.4291H217.769ZM226.434 16.4291H227.112V15.751H226.434V16.4291ZM226.434 32.0357H225.756V34.0492L226.974 32.4459L226.434 32.0357ZM238.291 16.4291V15.751H237.955L237.751 16.0189L238.291 16.4291ZM248.476 16.4291L249.008 16.8497L249.876 15.751H248.476V16.4291ZM234.693 33.8599L234.161 33.4393L233.83 33.8591L234.161 34.2795L234.693 33.8599ZM248.983 52V52.6781H250.38L249.515 51.5804L248.983 52ZM238.392 52L238.932 51.5893L226.974 35.8813L226.434 36.2921L225.895 36.7028L237.853 52.4107L238.392 52ZM226.434 36.2921H225.756V52H226.434H227.112V36.2921H226.434ZM226.434 52V51.3219H217.769V52V52.6781H226.434V52ZM217.769 52H218.447V16.4291H217.769H217.091V52H217.769ZM217.769 16.4291V17.1072H226.434V16.4291V15.751H217.769V16.4291ZM226.434 16.4291H225.756V32.0357H226.434H227.112V16.4291H226.434ZM226.434 32.0357L226.974 32.4459L238.831 16.8394L238.291 16.4291L237.751 16.0189L225.894 31.6255L226.434 32.0357ZM238.291 16.4291V17.1072H248.476V16.4291V15.751H238.291V16.4291ZM248.476 16.4291L247.944 16.0086L234.161 33.4393L234.693 33.8599L235.225 34.2805L249.008 16.8497L248.476 16.4291ZM234.693 33.8599L234.161 34.2795L248.45 52.4196L248.983 52L249.515 51.5804L235.226 33.4403L234.693 33.8599ZM248.983 52V51.3219H238.392V52V52.6781H248.983V52ZM297.686 16.4291H298.364V15.751H297.686V16.4291ZM297.686 52V52.6781H298.364V52H297.686ZM289.022 52H288.343V52.6781H289.022V52ZM289.022 37.3562H289.7V36.6781H289.022V37.3562ZM275.543 37.3562V36.6781H274.865V37.3562H275.543ZM275.543 52V52.6781H276.221V52H275.543ZM266.878 52H266.2V52.6781H266.878V52ZM266.878 16.4291V15.751H266.2V16.4291H266.878ZM275.543 16.4291H276.221V15.751H275.543V16.4291ZM275.543 30.3636H274.865V31.0417H275.543V30.3636ZM289.022 30.3636V31.0417H289.7V30.3636H289.022ZM289.022 16.4291V15.751H288.343V16.4291H289.022ZM297.686 16.4291H297.008V52H297.686H298.364V16.4291H297.686ZM297.686 52V51.3219H289.022V52V52.6781H297.686V52ZM289.022 52H289.7V37.3562H289.022H288.343V52H289.022ZM289.022 37.3562V36.6781H275.543V37.3562V38.0343H289.022V37.3562ZM275.543 37.3562H274.865V52H275.543H276.221V37.3562H275.543ZM275.543 52V51.3219H266.878V52V52.6781H275.543V52ZM266.878 52H267.557V16.4291H266.878H266.2V52H266.878ZM266.878 16.4291V17.1072H275.543V16.4291V15.751H266.878V16.4291ZM275.543 16.4291H274.865V30.3636H275.543H276.221V16.4291H275.543ZM275.543 30.3636V31.0417H289.022V30.3636V29.6855H275.543V30.3636ZM289.022 30.3636H289.7V16.4291H289.022H288.343V30.3636H289.022ZM289.022 16.4291V17.1072H297.686V16.4291V15.751H289.022V16.4291ZM313.974 16.4291H314.652V15.751H313.974V16.4291ZM315.545 42.6259L315.044 43.0828L315.545 42.6259ZM324.818 42.6259L325.311 43.0907L324.818 42.6259ZM326.439 16.4291V15.751H325.761V16.4291H326.439ZM335.104 16.4291H335.782V15.751H335.104V16.4291ZM333.077 45.7168L333.654 46.0722L333.077 45.7168ZM327.605 50.6826L327.308 50.0725L327.305 50.0742L327.605 50.6826ZM312.454 50.7332L312.147 51.338L312.158 51.3434L312.454 50.7332ZM307.235 45.7675L306.647 46.1059L306.65 46.1097L307.235 45.7675ZM305.309 16.4291V15.751H304.631V16.4291H305.309ZM313.974 16.4291H313.296V37.7109H313.974H314.652V16.4291H313.974ZM313.974 37.7109H313.296C313.296 39.9451 313.846 41.7695 315.044 43.0828L315.545 42.6259L316.046 42.169C315.149 41.1852 314.652 39.733 314.652 37.7109H313.974ZM315.545 42.6259L315.044 43.0828C316.256 44.4119 318 45.0268 320.156 45.0268V44.3487V43.6706C318.259 43.6706 316.929 43.137 316.046 42.169L315.545 42.6259ZM320.156 44.3487V45.0268C322.313 45.0268 324.068 44.4115 325.311 43.0907L324.818 42.6259L324.324 42.1612C323.405 43.1374 322.052 43.6706 320.156 43.6706V44.3487ZM324.818 42.6259L325.311 43.0907C326.547 41.7777 327.117 39.9503 327.117 37.7109H326.439H325.761C325.761 39.7278 325.25 41.177 324.324 42.1612L324.818 42.6259ZM326.439 37.7109H327.117V16.4291H326.439H325.761V37.7109H326.439ZM326.439 16.4291V17.1072H335.104V16.4291V15.751H326.439V16.4291ZM335.104 16.4291H334.426V37.6602H335.104H335.782V16.4291H335.104ZM335.104 37.6602H334.426C334.426 40.7391 333.771 43.2949 332.499 45.3614L333.077 45.7168L333.654 46.0722C335.085 43.7473 335.782 40.932 335.782 37.6602H335.104ZM333.077 45.7168L332.499 45.3614C331.215 47.4484 329.488 49.0147 327.308 50.0725L327.605 50.6826L327.901 51.2926C330.315 50.1209 332.236 48.3768 333.654 46.0722L333.077 45.7168ZM327.605 50.6826L327.305 50.0742C325.145 51.1382 322.715 51.6766 320.004 51.6766V52.3547V53.0328C322.9 53.0328 325.538 52.4564 327.904 51.2909L327.605 50.6826ZM320.004 52.3547V51.6766C317.289 51.6766 314.876 51.1538 312.75 50.1231L312.454 50.7332L312.158 51.3434C314.491 52.4746 317.111 53.0328 320.004 53.0328V52.3547ZM312.454 50.7332L312.761 50.1286C310.685 49.0748 309.041 47.5125 307.82 45.4253L307.235 45.7675L306.65 46.1097C307.997 48.4139 309.831 50.1622 312.147 51.3379L312.454 50.7332ZM307.235 45.7675L307.823 45.4292C306.611 43.3241 305.988 40.7444 305.988 37.6602H305.309H304.631C304.631 40.9267 305.292 43.7519 306.647 46.1058L307.235 45.7675ZM305.309 37.6602H305.988V16.4291H305.309H304.631V37.6602H305.309ZM305.309 16.4291V17.1072H313.974V16.4291V15.751H305.309V16.4291ZM364.243 33.7585L364.051 33.1084L364.102 34.4217L364.243 33.7585ZM369.209 36.8494L368.672 37.2635L368.676 37.2689L369.209 36.8494ZM367.942 49.4158L368.377 49.936L368.378 49.9353L367.942 49.4158ZM342.708 52H342.03V52.6781H342.708V52ZM342.708 16.4291V15.751H342.03V16.4291H342.708ZM367.182 18.912L366.753 19.4372L366.758 19.4407L367.182 18.912ZM368.601 30.8703L368.073 30.4451L368.067 30.4531L368.601 30.8703ZM351.373 30.8196H350.695V31.4977H351.373V30.8196ZM360.291 29.9076L360.721 30.4324L360.723 30.4303L360.291 29.9076ZM360.291 24.3338L359.848 24.847L359.854 24.8518L359.859 24.8566L360.291 24.3338ZM351.373 23.371V22.6929H350.695V23.371H351.373ZM361.102 44.0447L361.534 44.5675L361.536 44.5656L361.102 44.0447ZM361.051 38.2176L360.605 38.728L360.615 38.7368L361.051 38.2176ZM351.373 37.1535V36.4754H350.695V37.1535H351.373ZM351.373 45.0074H350.695V45.6855H351.373V45.0074ZM364.243 33.7585L364.102 34.4217C366.01 34.8284 367.523 35.7733 368.672 37.2634L369.209 36.8494L369.746 36.4355C368.395 34.6826 366.598 33.5669 364.385 33.0953L364.243 33.7585ZM369.209 36.8494L368.676 37.2689C369.83 38.7345 370.406 40.4102 370.406 42.3219H371.084H371.762C371.762 40.1124 371.088 38.1398 369.742 36.43L369.209 36.8494ZM371.084 42.3219H370.406C370.406 45.114 369.433 47.2808 367.507 48.8962L367.942 49.4158L368.378 49.9353C370.641 48.0376 371.762 45.4752 371.762 42.3219H371.084ZM367.942 49.4158L367.507 48.8956C365.608 50.4833 362.895 51.3219 359.278 51.3219V52V52.6781C363.092 52.6781 366.155 51.7939 368.377 49.936L367.942 49.4158ZM359.278 52V51.3219H342.708V52V52.6781H359.278V52ZM342.708 52H343.386V16.4291H342.708H342.03V52H342.708ZM342.708 16.4291V17.1072H358.72V16.4291V15.751H342.708V16.4291ZM358.72 16.4291V17.1072C362.238 17.1072 364.887 17.9127 366.753 19.4372L367.182 18.912L367.611 18.3868C365.424 16.6009 362.432 15.751 358.72 15.751V16.4291ZM367.182 18.912L366.758 19.4407C368.645 20.9567 369.595 23.0018 369.595 25.6512H370.273H370.951C370.951 22.6255 369.841 20.1778 367.607 18.3834L367.182 18.912ZM370.273 25.6512H369.595C369.595 27.6197 369.074 29.2012 368.073 30.4451L368.601 30.8703L369.129 31.2955C370.358 29.7694 370.951 27.8715 370.951 25.6512H370.273ZM368.601 30.8703L368.067 30.4531C367.08 31.7174 365.751 32.6045 364.051 33.1084L364.243 33.7585L364.436 34.4087C366.384 33.8316 367.96 32.7932 369.136 31.2875L368.601 30.8703ZM351.373 30.8196V31.4977H357.048V30.8196V30.1415H351.373V30.8196ZM357.048 30.8196V31.4977C358.551 31.4977 359.81 31.1773 360.721 30.4324L360.291 29.9076L359.862 29.3827C359.286 29.854 358.383 30.1415 357.048 30.1415V30.8196ZM360.291 29.9076L360.723 30.4303C361.688 29.633 362.135 28.4929 362.135 27.1207H361.457H360.778C360.778 28.1806 360.448 28.8985 359.859 29.3848L360.291 29.9076ZM361.457 27.1207H362.135C362.135 25.7484 361.688 24.6084 360.723 23.811L360.291 24.3338L359.859 24.8566C360.448 25.3428 360.778 26.0607 360.778 27.1207H361.457ZM360.291 24.3338L360.734 23.8206C359.823 23.0337 358.559 22.6929 357.048 22.6929V23.371V24.0491C358.375 24.0491 359.273 24.3502 359.848 24.847L360.291 24.3338ZM357.048 23.371V22.6929H351.373V23.371V24.0491H357.048V23.371ZM351.373 23.371H350.695V30.8196H351.373H352.051V23.371H351.373ZM357.758 45.0074V45.6855C359.3 45.6855 360.592 45.3458 361.534 44.5675L361.102 44.0447L360.67 43.5219C360.058 44.0272 359.12 44.3293 357.758 44.3293V45.0074ZM361.102 44.0447L361.536 44.5656C362.53 43.737 362.996 42.5665 362.996 41.1565H362.318H361.64C361.64 42.2462 361.295 43.0012 360.668 43.5238L361.102 44.0447ZM362.318 41.1565H362.996C362.996 39.7362 362.507 38.5547 361.487 37.6983L361.051 38.2176L360.615 38.7368C361.285 39.2992 361.64 40.077 361.64 41.1565H362.318ZM361.051 38.2176L361.498 37.7072C360.526 36.8569 359.215 36.4754 357.656 36.4754V37.1535V37.8316C359.002 37.8316 359.955 38.1594 360.605 38.7279L361.051 38.2176ZM357.656 37.1535V36.4754H351.373V37.1535V37.8316H357.656V37.1535ZM351.373 37.1535H350.695V45.0074H351.373H352.051V37.1535H351.373ZM351.373 45.0074V45.6855H357.758V45.0074V44.3293H351.373V45.0074Z" fill="url(#paint14_linear_313_896)" mask="url(#path-17-outside-3_313_896)"/>
</g>
<defs>
<filter id="filter0_f_313_896" x="0.219043" y="0.909961" width="56.3798" height="58.6867" filterUnits="userSpaceOnUse" color-interpolation-filters="sRGB">
<feFlood flood-opacity="0" result="BackgroundImageFix"/>
<feBlend mode="normal" in="SourceGraphic" in2="BackgroundImageFix" result="shape"/>
<feGaussianBlur stdDeviation="3.39048" result="effect1_foregroundBlur_313_896"/>
</filter>
<filter id="filter1_f_313_896" x="19.7774" y="52.3219" width="17.0324" height="11.406" filterUnits="userSpaceOnUse" color-interpolation-filters="sRGB">
<feFlood flood-opacity="0" result="BackgroundImageFix"/>
<feBlend mode="normal" in="SourceGraphic" in2="BackgroundImageFix" result="shape"/>
<feGaussianBlur stdDeviation="0.709635" result="effect1_foregroundBlur_313_896"/>
</filter>
<filter id="filter2_f_313_896" x="15.8664" y="24.0228" width="24.4294" height="35.5855" filterUnits="userSpaceOnUse" color-interpolation-filters="sRGB">
<feFlood flood-opacity="0" result="BackgroundImageFix"/>
<feBlend mode="normal" in="SourceGraphic" in2="BackgroundImageFix" result="shape"/>
<feGaussianBlur stdDeviation="3.39048" result="effect1_foregroundBlur_313_896"/>
</filter>
<filter id="filter3_d_313_896" x="72.7003" y="15.2443" width="300.418" height="43.2133" filterUnits="userSpaceOnUse" color-interpolation-filters="sRGB">
<feFlood flood-opacity="0" result="BackgroundImageFix"/>
<feColorMatrix in="SourceAlpha" type="matrix" values="0 0 0 0 0 0 0 0 0 0 0 0 0 0 0 0 0 0 127 0" result="hardAlpha"/>
<feOffset dx="-1.35619" dy="2.71238"/>
<feGaussianBlur stdDeviation="1.35619"/>
<feComposite in2="hardAlpha" operator="out"/>
<feColorMatrix type="matrix" values="0 0 0 0 0 0 0 0 0 0 0 0 0 0 0 0 0 0 0.1 0"/>
<feBlend mode="normal" in2="BackgroundImageFix" result="effect1_dropShadow_313_896"/>
<feBlend mode="normal" in="SourceGraphic" in2="effect1_dropShadow_313_896" result="shape"/>
</filter>
<linearGradient id="paint0_linear_313_896" x1="28.409" y1="7.69092" x2="28.409" y2="52.8157" gradientUnits="userSpaceOnUse">
<stop stop-color="#FFF6D5"/>
<stop offset="1" stop-color="#FFDB5B" stop-opacity="0.5"/>
</linearGradient>
<linearGradient id="paint1_linear_313_896" x1="28.409" y1="52.8157" x2="28.409" y2="7.69092" gradientUnits="userSpaceOnUse">
<stop stop-color="white" stop-opacity="0.5"/>
<stop offset="1" stop-color="white"/>
</linearGradient>
<linearGradient id="paint2_linear_313_896" x1="28.409" y1="7.69092" x2="28.409" y2="52.8157" gradientUnits="userSpaceOnUse">
<stop stop-color="white"/>
<stop offset="0.5" stop-color="white" stop-opacity="0.2"/>
<stop offset="1" stop-color="white"/>
</linearGradient>
<linearGradient id="paint3_linear_313_896" x1="28.2936" y1="53.7412" x2="28.2936" y2="55.7943" gradientUnits="userSpaceOnUse">
<stop stop-color="#FFDB5B"/>
<stop offset="1" stop-color="#FFF6D5"/>
</linearGradient>
<linearGradient id="paint4_linear_313_896" x1="28.2937" y1="56.719" x2="28.2937" y2="58.772" gradientUnits="userSpaceOnUse">
<stop stop-color="#FFDB5B"/>
<stop offset="1" stop-color="#FFF6D5"/>
</linearGradient>
<linearGradient id="paint5_linear_313_896" x1="28.3436" y1="59.6355" x2="28.3436" y2="63.799" gradientUnits="userSpaceOnUse">
<stop stop-color="#FFDB5B"/>
<stop offset="1" stop-color="#FFF6D5"/>
</linearGradient>
<linearGradient id="paint6_linear_313_896" x1="28.2951" y1="55.7945" x2="28.2951" y2="53.7415" gradientUnits="userSpaceOnUse">
<stop stop-color="white" stop-opacity="0.5"/>
<stop offset="1" stop-color="white"/>
</linearGradient>
<linearGradient id="paint7_linear_313_896" x1="28.2951" y1="58.773" x2="28.2951" y2="56.72" gradientUnits="userSpaceOnUse">
<stop stop-color="white" stop-opacity="0.5"/>
<stop offset="1" stop-color="white"/>
</linearGradient>
<linearGradient id="paint8_linear_313_896" x1="28.2943" y1="62.3091" x2="28.2943" y2="59.6985" gradientUnits="userSpaceOnUse">
<stop stop-color="white" stop-opacity="0.5"/>
<stop offset="1" stop-color="white"/>
</linearGradient>
<radialGradient id="paint9_radial_313_896" cx="0" cy="0" r="1" gradientUnits="userSpaceOnUse" gradientTransform="translate(28.0811 42.5787) rotate(90) scale(10.2486 5.05715)">
<stop offset="1" stop-color="#FFC700"/>
</radialGradient>
<radialGradient id="paint10_radial_313_896" cx="0" cy="0" r="1" gradientUnits="userSpaceOnUse" gradientTransform="translate(28.0811 42.5787) rotate(90) scale(10.2486 5.05715)">
<stop offset="0.321493" stop-color="#FFF6D5"/>
<stop offset="0.660746" stop-color="#FFDD66"/>
<stop offset="1" stop-color="#ECB652"/>
</radialGradient>
<linearGradient id="paint11_linear_313_896" x1="22.4122" y1="54.3207" x2="34.4012" y2="54.3207" gradientUnits="userSpaceOnUse">
<stop stop-color="white" stop-opacity="0.1"/>
<stop offset="0.5" stop-color="#FFC700"/>
<stop offset="1" stop-color="white" stop-opacity="0.1"/>
</linearGradient>
<linearGradient id="paint12_linear_313_896" x1="79.3522" y1="53.2934" x2="460.117" y2="15.605" gradientUnits="userSpaceOnUse">
<stop offset="0.148766" stop-color="#ECB652"/>
<stop offset="0.5" stop-color="#FFC700"/>
</linearGradient>
<linearGradient id="paint13_linear_313_896" x1="275.971" y1="34.7823" x2="373.153" y2="34.8679" gradientUnits="userSpaceOnUse">
<stop stop-color="white"/>
<stop offset="1" stop-color="white" stop-opacity="0.3"/>
</linearGradient>
<linearGradient id="paint14_linear_313_896" x1="373.085" y1="96.8489" x2="60.2822" y2="56.7038" gradientUnits="userSpaceOnUse">
<stop stop-color="white" stop-opacity="0.75"/>
<stop offset="1" stop-color="#999999" stop-opacity="0"/>
</linearGradient>
</defs>
</svg>
