<svg width="57" height="64" viewBox="0 0 57 64" fill="none" xmlns="http://www.w3.org/2000/svg">
<g filter="url(#filter0_f_313_897)">
<path d="M49.8179 24.9128V49.2533C49.8179 51.2208 48.2306 52.8157 46.2695 52.8157H35.7046C35.6809 52.5143 35.6715 52.2057 35.6715 51.8996C35.6715 51.5293 35.688 51.1615 35.7211 50.7984C35.8891 48.914 36.7384 47.1648 38.0584 45.8144C38.1199 45.7527 38.1814 45.6886 38.2405 45.6246C39.1986 44.6064 40.0006 43.4388 40.6109 42.1619C41.4058 40.4911 41.8718 38.6328 41.9191 36.6677C42.1107 29.0494 35.9482 22.7649 28.409 22.7626C20.8721 22.7649 14.7096 29.0494 14.9012 36.6677C14.9485 38.6328 15.4146 40.4911 16.2094 42.1619C16.8197 43.4388 17.6217 44.6064 18.5798 45.6246C18.6389 45.6886 18.7004 45.7527 18.7619 45.8144C20.0819 47.1648 20.9312 48.914 21.0992 50.7984C21.1323 51.1615 21.1488 51.5293 21.1488 51.8996C21.1488 52.2057 21.1394 52.5143 21.1157 52.8157H10.5508C8.5897 52.8157 7 51.2208 7 49.2533V24.9128C7 23.8021 7.51807 22.7531 8.39809 22.0814L26.2586 8.42071C27.529 7.44765 29.2913 7.44765 30.5617 8.42071L48.4222 22.0814C49.3022 22.7531 49.8179 23.8021 49.8179 24.9128Z" fill="url(#paint0_linear_313_897)"/>
</g>
<path d="M49.8179 24.9128V49.2533C49.8179 51.2208 48.2306 52.8157 46.2695 52.8157H35.7046C35.6809 52.5143 35.6715 52.2057 35.6715 51.8996C35.6715 51.5293 35.688 51.1615 35.7211 50.7984C35.8891 48.914 36.7384 47.1648 38.0584 45.8144C38.1199 45.7527 38.1814 45.6886 38.2405 45.6246C39.1986 44.6064 40.0006 43.4388 40.6109 42.1619C41.4058 40.4911 41.8718 38.6328 41.9191 36.6677C42.1107 29.0494 35.9482 22.7649 28.409 22.7626C20.8721 22.7649 14.7096 29.0494 14.9012 36.6677C14.9485 38.6328 15.4146 40.4911 16.2094 42.1619C16.8197 43.4388 17.6217 44.6064 18.5798 45.6246C18.6389 45.6886 18.7004 45.7527 18.7619 45.8144C20.0819 47.1648 20.9312 48.914 21.0992 50.7984C21.1323 51.1615 21.1488 51.5293 21.1488 51.8996C21.1488 52.2057 21.1394 52.5143 21.1157 52.8157H10.5508C8.5897 52.8157 7 51.2208 7 49.2533V24.9128C7 23.8021 7.51807 22.7531 8.39809 22.0814L26.2586 8.42071C27.529 7.44765 29.2913 7.44765 30.5617 8.42071L48.4222 22.0814C49.3022 22.7531 49.8179 23.8021 49.8179 24.9128Z" fill="url(#paint1_linear_313_897)"/>
<path d="M26.4648 8.68994C27.5417 7.86508 29.009 7.81392 30.1348 8.53564L30.3555 8.68994L48.2158 22.3511H48.2168C49.0119 22.958 49.4785 23.9069 49.4785 24.9126V49.2534C49.4785 51.0349 48.042 52.477 46.2695 52.4771H36.0254C36.0165 52.2862 36.0107 52.0931 36.0107 51.8999C36.0107 51.5399 36.0265 51.1821 36.0586 50.8296V50.8286C36.2191 49.0282 37.0302 47.3511 38.2979 46.0532L38.2988 46.0542C38.3632 45.9896 38.4272 45.9222 38.4893 45.855L38.4883 45.854C39.4695 44.8109 40.2919 43.6158 40.917 42.3081V42.3071C41.7316 40.5946 42.2093 38.69 42.2578 36.6763C42.4542 28.8677 36.1391 22.4258 28.4092 22.4233C20.6815 22.4258 14.3661 28.8677 14.5625 36.6763C14.611 38.69 15.0887 40.5946 15.9033 42.3071V42.3081C16.5283 43.6156 17.3501 44.811 18.3311 45.854V45.855C18.3929 45.922 18.4573 45.9888 18.5215 46.0532C19.7894 47.3511 20.6012 49.028 20.7617 50.8286V50.8296C20.7939 51.1821 20.8096 51.5399 20.8096 51.8999C20.8096 52.0931 20.8038 52.2862 20.7949 52.4771H10.5508C8.778 52.477 7.33891 51.0346 7.33887 49.2534V24.9126C7.33892 23.9074 7.80803 22.9583 8.60352 22.3511H8.60449L26.4648 8.68994Z" stroke="url(#paint2_linear_313_897)" stroke-opacity="0.75" stroke-width="0.678096"/>
<g filter="url(#filter1_f_313_897)">
<path d="M34.3685 53.7412H22.2187C21.6542 53.7412 21.1967 54.2003 21.1967 54.7665V54.7689C21.1967 55.3352 21.6542 55.7943 22.2187 55.7943H34.3685C34.933 55.7943 35.3905 55.3352 35.3905 54.7689V54.7665C35.3905 54.2003 34.933 53.7412 34.3685 53.7412Z" fill="url(#paint3_linear_313_897)"/>
<path d="M34.3686 56.719H22.2187C21.6543 56.719 21.1968 57.1781 21.1968 57.7443V57.7467C21.1968 58.313 21.6543 58.772 22.2187 58.772H34.3686C34.933 58.772 35.3906 58.313 35.3906 57.7467V57.7443C35.3906 57.1781 34.933 56.719 34.3686 56.719Z" fill="url(#paint4_linear_313_897)"/>
<mask id="path-6-inside-1_313_897" fill="white">
<path d="M30.8956 59.6981C30.8956 61.1411 29.7317 62.3088 28.2934 62.3088C26.8551 62.3088 25.6912 61.1411 25.6912 59.6981"/>
</mask>
<path d="M30.8956 59.6981C30.8956 61.1411 29.7317 62.3088 28.2934 62.3088C26.8551 62.3088 25.6912 61.1411 25.6912 59.6981" fill="url(#paint5_linear_313_897)"/>
<path d="M30.8956 59.6981H30.7536C30.7536 61.0631 29.6529 62.1668 28.2934 62.1668V62.3088V62.4507C29.8105 62.4507 31.0375 61.219 31.0375 59.6981H30.8956ZM28.2934 62.3088V62.1668C26.9339 62.1668 25.8331 61.0631 25.8331 59.6981H25.6912H25.5493C25.5493 61.219 26.7763 62.4507 28.2934 62.4507V62.3088Z" fill="white" fill-opacity="0.2" mask="url(#path-6-inside-1_313_897)"/>
</g>
<path d="M34.37 53.7415H22.2201C21.6557 53.7415 21.1982 54.2005 21.1982 54.7668V54.7692C21.1982 55.3354 21.6557 55.7945 22.2201 55.7945H34.37C34.9344 55.7945 35.392 55.3354 35.392 54.7692V54.7668C35.392 54.2005 34.9344 53.7415 34.37 53.7415Z" fill="url(#paint6_linear_313_897)"/>
<path d="M22.2197 53.8127H34.3701C34.895 53.8128 35.3212 54.2396 35.3212 54.7668V54.7688C35.3212 55.2961 34.895 55.7239 34.3701 55.7239H22.2197C21.6949 55.7236 21.2695 55.2959 21.2695 54.7688V54.7668C21.2695 54.2397 21.6949 53.813 22.2197 53.8127Z" stroke="white" stroke-opacity="0.75" stroke-width="0.141927"/>
<path d="M34.37 56.72H22.2201C21.6557 56.72 21.1982 57.179 21.1982 57.7453V57.7477C21.1982 58.314 21.6557 58.773 22.2201 58.773H34.37C34.9344 58.773 35.392 58.314 35.392 57.7477V57.7453C35.392 57.179 34.9344 56.72 34.37 56.72Z" fill="url(#paint7_linear_313_897)"/>
<path d="M22.2197 56.7913H34.3701C34.895 56.7913 35.3212 57.2181 35.3212 57.7454V57.7473C35.3212 58.2746 34.895 58.7024 34.3701 58.7024H22.2197C21.6949 58.7021 21.2695 58.2745 21.2695 57.7473V57.7454C21.2695 57.2182 21.6949 56.7915 22.2197 56.7913Z" stroke="white" stroke-opacity="0.5" stroke-width="0.141927"/>
<mask id="path-12-inside-2_313_897" fill="white">
<path d="M30.8965 59.6985C30.8965 61.1415 29.7326 62.3091 28.2943 62.3091C26.856 62.3091 25.6921 61.1415 25.6921 59.6985"/>
</mask>
<path d="M30.8965 59.6985C30.8965 61.1415 29.7326 62.3091 28.2943 62.3091C26.856 62.3091 25.6921 61.1415 25.6921 59.6985" fill="url(#paint8_linear_313_897)"/>
<path d="M30.8965 59.6985H30.7546C30.7546 61.0635 29.6538 62.1672 28.2943 62.1672V62.3091V62.451C29.8114 62.451 31.0384 61.2194 31.0384 59.6985H30.8965ZM28.2943 62.3091V62.1672C26.9348 62.1672 25.834 61.0635 25.834 59.6985H25.6921H25.5502C25.5502 61.2194 26.7772 62.451 28.2943 62.451V62.3091Z" fill="white" fill-opacity="0.5" mask="url(#path-12-inside-2_313_897)"/>
<g filter="url(#filter2_f_313_897)">
<path d="M33.506 40.2463L30.9163 52.8272H24.9356L28.5601 44.5293C28.6739 44.2629 28.4414 43.9805 28.149 44.029L23.0877 44.8769C22.7798 44.9278 22.5456 44.6136 22.6922 44.3456L26.8643 36.7031H23.5127C23.2457 36.7031 23.1245 36.3801 23.3284 36.2131L29.8392 30.8691C30.0021 30.7363 30.2527 30.8159 30.3026 31.0163L31.6292 36.3603C31.6726 36.5344 31.5358 36.7031 31.3508 36.7031H28.9196L28.154 40.4221C28.0999 40.6838 28.3439 40.9113 28.6109 40.8492L33.0507 39.8137C33.3201 39.7508 33.565 39.9831 33.506 40.2463Z" fill="url(#paint9_radial_313_897)"/>
</g>
<path d="M33.506 40.2463L30.9163 52.8272H24.9356L28.5601 44.5293C28.6739 44.2629 28.4414 43.9805 28.149 44.029L23.0877 44.8769C22.7798 44.9278 22.5456 44.6136 22.6922 44.3456L26.8643 36.7031H23.5127C23.2457 36.7031 23.1245 36.3801 23.3284 36.2131L29.8392 30.8691C30.0021 30.7363 30.2527 30.8159 30.3026 31.0163L31.6292 36.3603C31.6726 36.5344 31.5358 36.7031 31.3508 36.7031H28.9196L28.154 40.4221C28.0999 40.6838 28.3439 40.9113 28.6109 40.8492L33.0507 39.8137C33.3201 39.7508 33.565 39.9831 33.506 40.2463Z" fill="url(#paint10_radial_313_897)"/>
<line x1="22.4122" y1="53.7497" x2="34.4012" y2="53.7497" stroke="url(#paint11_linear_313_897)" stroke-width="0.141927"/>
<defs>
<filter id="filter0_f_313_897" x="0.219043" y="0.909961" width="56.3798" height="58.6867" filterUnits="userSpaceOnUse" color-interpolation-filters="sRGB">
<feFlood flood-opacity="0" result="BackgroundImageFix"/>
<feBlend mode="normal" in="SourceGraphic" in2="BackgroundImageFix" result="shape"/>
<feGaussianBlur stdDeviation="3.39048" result="effect1_foregroundBlur_313_897"/>
</filter>
<filter id="filter1_f_313_897" x="19.7774" y="52.3219" width="17.0324" height="11.406" filterUnits="userSpaceOnUse" color-interpolation-filters="sRGB">
<feFlood flood-opacity="0" result="BackgroundImageFix"/>
<feBlend mode="normal" in="SourceGraphic" in2="BackgroundImageFix" result="shape"/>
<feGaussianBlur stdDeviation="0.709635" result="effect1_foregroundBlur_313_897"/>
</filter>
<filter id="filter2_f_313_897" x="15.8664" y="24.0228" width="24.4294" height="35.5855" filterUnits="userSpaceOnUse" color-interpolation-filters="sRGB">
<feFlood flood-opacity="0" result="BackgroundImageFix"/>
<feBlend mode="normal" in="SourceGraphic" in2="BackgroundImageFix" result="shape"/>
<feGaussianBlur stdDeviation="3.39048" result="effect1_foregroundBlur_313_897"/>
</filter>
<linearGradient id="paint0_linear_313_897" x1="28.409" y1="7.69092" x2="28.409" y2="52.8157" gradientUnits="userSpaceOnUse">
<stop stop-color="#FFF6D5"/>
<stop offset="1" stop-color="#FFDB5B" stop-opacity="0.5"/>
</linearGradient>
<linearGradient id="paint1_linear_313_897" x1="28.409" y1="52.8157" x2="28.409" y2="7.69092" gradientUnits="userSpaceOnUse">
<stop stop-color="white" stop-opacity="0.5"/>
<stop offset="1" stop-color="white"/>
</linearGradient>
<linearGradient id="paint2_linear_313_897" x1="28.409" y1="7.69092" x2="28.409" y2="52.8157" gradientUnits="userSpaceOnUse">
<stop stop-color="white"/>
<stop offset="0.5" stop-color="white" stop-opacity="0.2"/>
<stop offset="1" stop-color="white"/>
</linearGradient>
<linearGradient id="paint3_linear_313_897" x1="28.2936" y1="53.7412" x2="28.2936" y2="55.7943" gradientUnits="userSpaceOnUse">
<stop stop-color="#FFDB5B"/>
<stop offset="1" stop-color="#FFF6D5"/>
</linearGradient>
<linearGradient id="paint4_linear_313_897" x1="28.2937" y1="56.719" x2="28.2937" y2="58.772" gradientUnits="userSpaceOnUse">
<stop stop-color="#FFDB5B"/>
<stop offset="1" stop-color="#FFF6D5"/>
</linearGradient>
<linearGradient id="paint5_linear_313_897" x1="28.3436" y1="59.6355" x2="28.3436" y2="63.799" gradientUnits="userSpaceOnUse">
<stop stop-color="#FFDB5B"/>
<stop offset="1" stop-color="#FFF6D5"/>
</linearGradient>
<linearGradient id="paint6_linear_313_897" x1="28.2951" y1="55.7945" x2="28.2951" y2="53.7415" gradientUnits="userSpaceOnUse">
<stop stop-color="white" stop-opacity="0.5"/>
<stop offset="1" stop-color="white"/>
</linearGradient>
<linearGradient id="paint7_linear_313_897" x1="28.2951" y1="58.773" x2="28.2951" y2="56.72" gradientUnits="userSpaceOnUse">
<stop stop-color="white" stop-opacity="0.5"/>
<stop offset="1" stop-color="white"/>
</linearGradient>
<linearGradient id="paint8_linear_313_897" x1="28.2943" y1="62.3091" x2="28.2943" y2="59.6985" gradientUnits="userSpaceOnUse">
<stop stop-color="white" stop-opacity="0.5"/>
<stop offset="1" stop-color="white"/>
</linearGradient>
<radialGradient id="paint9_radial_313_897" cx="0" cy="0" r="1" gradientUnits="userSpaceOnUse" gradientTransform="translate(28.0811 42.5787) rotate(90) scale(10.2486 5.05715)">
<stop offset="1" stop-color="#FFC700"/>
</radialGradient>
<radialGradient id="paint10_radial_313_897" cx="0" cy="0" r="1" gradientUnits="userSpaceOnUse" gradientTransform="translate(28.0811 42.5787) rotate(90) scale(10.2486 5.05715)">
<stop offset="0.321493" stop-color="#FFF6D5"/>
<stop offset="0.660746" stop-color="#FFDD66"/>
<stop offset="1" stop-color="#ECB652"/>
</radialGradient>
<linearGradient id="paint11_linear_313_897" x1="22.4122" y1="54.3207" x2="34.4012" y2="54.3207" gradientUnits="userSpaceOnUse">
<stop stop-color="white" stop-opacity="0.1"/>
<stop offset="0.5" stop-color="#FFC700"/>
<stop offset="1" stop-color="white" stop-opacity="0.1"/>
</linearGradient>
</defs>
</svg>
