<svg width="121" height="154" viewBox="0 0 121 154" fill="none" xmlns="http://www.w3.org/2000/svg">
<path d="M120.5 48.2654V116.481C120.5 121.995 116.051 126.465 110.555 126.465H80.9464C80.8801 125.62 80.8536 124.756 80.8536 123.898C80.8536 122.86 80.9 121.829 80.9928 120.811C81.4635 115.53 83.8436 110.628 87.5431 106.844C87.7155 106.671 87.8878 106.491 88.0536 106.311C90.7387 103.458 92.9862 100.186 94.6967 96.6072C96.9243 91.9247 98.2304 86.7167 98.363 81.2094C98.9 59.8586 81.6293 42.2459 60.5 42.2393C39.3773 42.2459 22.1066 59.8586 22.6436 81.2094C22.7762 86.7167 24.0823 91.9247 26.3099 96.6072C28.0204 100.186 30.268 103.458 32.953 106.311C33.1188 106.491 33.2912 106.671 33.4635 106.844C37.163 110.628 39.5431 115.53 40.0138 120.811C40.1066 121.829 40.153 122.86 40.153 123.898C40.153 124.756 40.1265 125.62 40.0602 126.465H10.4514C4.95525 126.465 0.5 121.995 0.5 116.481V48.2654C0.5 45.1525 1.95193 42.2126 4.41823 40.3303L54.4735 2.04528C58.0337 -0.681761 62.9729 -0.681761 66.5331 2.04528L116.588 40.3303C119.055 42.2126 120.5 45.1525 120.5 48.2654Z" fill="url(#paint0_linear_537_2238)"/>
<path d="M120.5 48.2654V116.481C120.5 121.995 116.051 126.465 110.555 126.465H80.9464C80.8801 125.62 80.8536 124.756 80.8536 123.898C80.8536 122.86 80.9 121.829 80.9928 120.811C81.4635 115.53 83.8436 110.628 87.5431 106.844C87.7155 106.671 87.8878 106.491 88.0536 106.311C90.7387 103.458 92.9862 100.186 94.6967 96.6072C96.9243 91.9247 98.2304 86.7167 98.363 81.2094C98.9 59.8586 81.6293 42.2459 60.5 42.2393C39.3773 42.2459 22.1066 59.8586 22.6436 81.2094C22.7762 86.7167 24.0823 91.9247 26.3099 96.6072C28.0204 100.186 30.268 103.458 32.953 106.311C33.1188 106.491 33.2912 106.671 33.4635 106.844C37.163 110.628 39.5431 115.53 40.0138 120.811C40.1066 121.829 40.153 122.86 40.153 123.898C40.153 124.756 40.1265 125.62 40.0602 126.465H10.4514C4.95525 126.465 0.5 121.995 0.5 116.481V48.2654C0.5 45.1525 1.95193 42.2126 4.41823 40.3303L54.4735 2.04528C58.0337 -0.681761 62.9729 -0.681761 66.5331 2.04528L116.588 40.3303C119.055 42.2126 120.5 45.1525 120.5 48.2654Z" fill="url(#paint1_linear_537_2238)"/>
<path d="M55.0518 2.7998C58.271 0.334092 62.7359 0.334026 65.9551 2.7998H65.9561L116.011 41.085L116.012 41.0859C118.241 42.787 119.55 45.4466 119.55 48.2656V116.481C119.55 121.474 115.523 125.514 110.556 125.515H81.8408C81.816 124.98 81.8037 124.439 81.8037 123.897C81.8037 122.888 81.8493 121.886 81.9395 120.897V120.896C82.3895 115.847 84.6654 111.145 88.2217 107.507C88.4003 107.327 88.5789 107.141 88.751 106.955C91.5003 104.032 93.8021 100.681 95.5537 97.0166L95.5547 97.0156C97.838 92.2161 99.1765 86.8773 99.3125 81.2334C99.8543 59.6911 82.7126 41.8611 61.5127 41.3027L60.5 41.2891C39.1813 41.2958 21.698 58.7893 21.6816 80.21L21.6934 81.2334C21.8294 86.8773 23.1688 92.2161 25.4521 97.0156L25.4531 97.0166C27.2059 100.684 29.5088 104.037 32.2607 106.962C32.4309 107.146 32.6077 107.33 32.7842 107.507V107.508C36.3404 111.146 38.6173 115.847 39.0674 120.896V120.897C39.1575 121.886 39.2031 122.888 39.2031 123.897C39.2031 124.439 39.1908 124.98 39.166 125.515H10.4512C5.48284 125.515 1.45023 121.473 1.4502 116.481V48.2656C1.4502 45.448 2.76519 42.7879 4.99512 41.0859V41.085L55.0508 2.7998H55.0518Z" stroke="url(#paint2_linear_537_2238)" stroke-opacity="0.75" stroke-width="1.90041"/>
<path d="M77.2025 129.059H43.1517C41.5699 129.059 40.2876 130.345 40.2876 131.932V131.939C40.2876 133.526 41.5699 134.812 43.1517 134.812H77.2025C78.7843 134.812 80.0666 133.526 80.0666 131.939V131.932C80.0666 130.345 78.7843 129.059 77.2025 129.059Z" fill="url(#paint3_linear_537_2238)"/>
<path d="M77.2025 137.405H43.1517C41.5699 137.405 40.2876 138.692 40.2876 140.279V140.285C40.2876 141.873 41.5699 143.159 43.1517 143.159H77.2025C78.7843 143.159 80.0666 141.873 80.0666 140.285V140.279C80.0666 138.692 78.7843 137.405 77.2025 137.405Z" fill="url(#paint4_linear_537_2238)"/>
<mask id="path-6-inside-1_537_2238" fill="white">
<path d="M67.468 145.753C67.468 149.797 64.2061 153.069 60.1751 153.069C56.1442 153.069 52.8823 149.797 52.8823 145.753"/>
</mask>
<path d="M67.468 145.753C67.468 149.797 64.2061 153.069 60.1751 153.069C56.1442 153.069 52.8823 149.797 52.8823 145.753" fill="url(#paint5_linear_537_2238)"/>
<path d="M67.468 145.753H67.0702C67.0702 149.578 63.9852 152.672 60.1751 152.672V153.069V153.467C64.427 153.467 67.8657 150.015 67.8657 145.753H67.468ZM60.1751 153.069V152.672C56.3651 152.672 53.2801 149.578 53.2801 145.753H52.8823H52.4846C52.4846 150.015 55.9233 153.467 60.1751 153.467V153.069Z" fill="white" fill-opacity="0.2" mask="url(#path-6-inside-1_537_2238)"/>
<path d="M77.2052 129.059H43.1544C41.5726 129.059 40.2903 130.345 40.2903 131.932V131.939C40.2903 133.526 41.5726 134.813 43.1544 134.813H77.2052C78.787 134.813 80.0693 133.526 80.0693 131.939V131.932C80.0693 130.345 78.787 129.059 77.2052 129.059Z" fill="url(#paint6_linear_537_2238)"/>
<path d="M43.1545 129.258H77.2053C78.6766 129.258 79.8704 130.455 79.8704 131.933V131.939C79.8704 133.416 78.6766 134.613 77.2053 134.614H43.1545C41.6832 134.614 40.4895 133.417 40.4895 131.939V131.933C40.4895 130.455 41.6832 129.258 43.1545 129.258Z" stroke="white" stroke-opacity="0.75" stroke-width="0.39776"/>
<path d="M77.2052 137.406H43.1544C41.5726 137.406 40.2903 138.693 40.2903 140.28V140.287C40.2903 141.874 41.5726 143.16 43.1544 143.16H77.2052C78.787 143.16 80.0693 141.874 80.0693 140.287V140.28C80.0693 138.693 78.787 137.406 77.2052 137.406Z" fill="url(#paint7_linear_537_2238)"/>
<path d="M43.1545 137.606H77.2053C78.6766 137.606 79.8704 138.803 79.8704 140.281V140.286C79.8704 141.764 78.6766 142.961 77.2053 142.961H43.1545C41.6832 142.961 40.4895 141.764 40.4895 140.286V140.281C40.4895 138.803 41.6832 137.606 43.1545 137.606Z" stroke="white" stroke-opacity="0.5" stroke-width="0.39776"/>
<path d="M67.4709 145.754C67.4709 149.798 64.209 153.071 60.1781 153.071C56.1471 153.071 52.8853 149.798 52.8853 145.754" fill="url(#paint8_linear_537_2238)"/>
<path d="M74.7836 91.2385L67.5258 126.497H50.7645L60.9224 103.242C61.2414 102.495 60.5896 101.704 59.7704 101.84L45.5856 104.216C44.7227 104.359 44.0664 103.478 44.4771 102.727L56.1697 81.3082H46.7766C46.0285 81.3082 45.6889 80.4032 46.2603 79.9351L64.507 64.9583C64.9637 64.586 65.666 64.8089 65.8059 65.3707L69.5237 80.3475C69.6453 80.8356 69.2621 81.3082 68.7434 81.3082H61.9299L59.7841 91.7311C59.6327 92.4644 60.3165 93.102 61.0647 92.9281L73.5076 90.0259C74.2627 89.8498 74.9488 90.5007 74.7836 91.2385Z" fill="url(#paint9_radial_537_2238)"/>
<path d="M74.7836 91.2385L67.5258 126.497H50.7645L60.9224 103.242C61.2414 102.495 60.5896 101.704 59.7704 101.84L45.5856 104.216C44.7227 104.359 44.0664 103.478 44.4771 102.727L56.1697 81.3082H46.7766C46.0285 81.3082 45.6889 80.4032 46.2603 79.9351L64.507 64.9583C64.9637 64.586 65.666 64.8089 65.8059 65.3707L69.5237 80.3475C69.6453 80.8356 69.2621 81.3082 68.7434 81.3082H61.9299L59.7841 91.7311C59.6327 92.4644 60.3165 93.102 61.0647 92.9281L73.5076 90.0259C74.2627 89.8498 74.9488 90.5007 74.7836 91.2385Z" fill="url(#paint10_radial_537_2238)"/>
<line x1="43.6934" y1="129.082" x2="77.2934" y2="129.082" stroke="url(#paint11_linear_537_2238)" stroke-width="0.39776"/>
<defs>
<linearGradient id="paint0_linear_537_2238" x1="60.5" y1="0" x2="60.5" y2="126.465" gradientUnits="userSpaceOnUse">
<stop stop-color="#FFF6D5"/>
<stop offset="1" stop-color="#FFDB5B" stop-opacity="0.5"/>
</linearGradient>
<linearGradient id="paint1_linear_537_2238" x1="60.5" y1="126.465" x2="60.5" y2="0" gradientUnits="userSpaceOnUse">
<stop stop-color="white" stop-opacity="0.5"/>
<stop offset="1" stop-color="white"/>
</linearGradient>
<linearGradient id="paint2_linear_537_2238" x1="60.5" y1="0" x2="60.5" y2="126.465" gradientUnits="userSpaceOnUse">
<stop stop-color="white"/>
<stop offset="0.5" stop-color="white" stop-opacity="0.2"/>
<stop offset="1" stop-color="white"/>
</linearGradient>
<linearGradient id="paint3_linear_537_2238" x1="60.1771" y1="129.059" x2="60.1771" y2="134.812" gradientUnits="userSpaceOnUse">
<stop stop-color="#FFDB5B"/>
<stop offset="1" stop-color="#FFF6D5"/>
</linearGradient>
<linearGradient id="paint4_linear_537_2238" x1="60.1771" y1="137.405" x2="60.1771" y2="143.159" gradientUnits="userSpaceOnUse">
<stop stop-color="#FFDB5B"/>
<stop offset="1" stop-color="#FFF6D5"/>
</linearGradient>
<linearGradient id="paint5_linear_537_2238" x1="60.316" y1="145.577" x2="60.316" y2="157.246" gradientUnits="userSpaceOnUse">
<stop stop-color="#FFDB5B"/>
<stop offset="1" stop-color="#FFF6D5"/>
</linearGradient>
<linearGradient id="paint6_linear_537_2238" x1="60.1798" y1="134.813" x2="60.1798" y2="129.059" gradientUnits="userSpaceOnUse">
<stop stop-color="white" stop-opacity="0.5"/>
<stop offset="1" stop-color="white"/>
</linearGradient>
<linearGradient id="paint7_linear_537_2238" x1="60.1798" y1="143.16" x2="60.1798" y2="137.406" gradientUnits="userSpaceOnUse">
<stop stop-color="white" stop-opacity="0.5"/>
<stop offset="1" stop-color="white"/>
</linearGradient>
<linearGradient id="paint8_linear_537_2238" x1="60.1781" y1="153.071" x2="60.1781" y2="145.754" gradientUnits="userSpaceOnUse">
<stop stop-color="white" stop-opacity="0.5"/>
<stop offset="1" stop-color="white"/>
</linearGradient>
<radialGradient id="paint9_radial_537_2238" cx="0" cy="0" r="1" gradientUnits="userSpaceOnUse" gradientTransform="translate(59.58 97.7749) rotate(90) scale(28.7223 14.173)">
<stop offset="1" stop-color="#FFC700"/>
</radialGradient>
<radialGradient id="paint10_radial_537_2238" cx="0" cy="0" r="1" gradientUnits="userSpaceOnUse" gradientTransform="translate(59.58 97.7749) rotate(90) scale(28.7223 14.173)">
<stop offset="0.321493" stop-color="#FFF6D5"/>
<stop offset="0.660746" stop-color="#FFDD66"/>
<stop offset="1" stop-color="#ECB652"/>
</radialGradient>
<linearGradient id="paint11_linear_537_2238" x1="43.6934" y1="129.781" x2="77.2934" y2="129.781" gradientUnits="userSpaceOnUse">
<stop stop-color="white" stop-opacity="0.1"/>
<stop offset="0.5" stop-color="#FFC700"/>
<stop offset="1" stop-color="white" stop-opacity="0.1"/>
</linearGradient>
</defs>
</svg>
