<svg width="40" height="52" viewBox="0 0 40 52" fill="none" xmlns="http://www.w3.org/2000/svg">
<path d="M39.7342 16.7019V39.1384C39.7342 40.9519 38.2711 42.422 36.4634 42.422H26.7249C26.7031 42.1442 26.6944 41.8598 26.6944 41.5776C26.6944 41.2363 26.7096 40.8972 26.7402 40.5625C26.895 38.8255 27.6778 37.2132 28.8946 35.9685C28.9513 35.9116 29.008 35.8525 29.0625 35.7935C29.9456 34.855 30.6848 33.7786 31.2474 32.6017C31.9801 31.0616 32.4097 29.3486 32.4533 27.5373C32.6299 20.5149 26.9495 14.722 20 14.7198C13.0527 14.722 7.37226 20.5149 7.54888 27.5373C7.5925 29.3486 8.02207 31.0616 8.75474 32.6017C9.31733 33.7786 10.0566 34.855 10.9397 35.7935C10.9942 35.8525 11.0509 35.9116 11.1076 35.9685C12.3244 37.2132 13.1072 38.8255 13.262 40.5625C13.2925 40.8972 13.3078 41.2363 13.3078 41.5776C13.3078 41.8598 13.2991 42.1442 13.2773 42.422H3.5388C1.7311 42.422 0.265747 40.9519 0.265747 39.1384V16.7019C0.265747 15.678 0.743294 14.7111 1.55447 14.092L18.0178 1.49988C19.1888 0.602945 20.8134 0.602945 21.9843 1.49988L38.4477 14.092C39.2589 14.7111 39.7342 15.678 39.7342 16.7019Z" fill="white"/>
<path d="M39.7342 16.7019V39.1384C39.7342 40.9519 38.2711 42.422 36.4634 42.422H26.7249C26.7031 42.1442 26.6944 41.8598 26.6944 41.5776C26.6944 41.2363 26.7096 40.8972 26.7402 40.5625C26.895 38.8255 27.6778 37.2132 28.8946 35.9685C28.9513 35.9116 29.008 35.8525 29.0625 35.7935C29.9456 34.855 30.6848 33.7786 31.2474 32.6017C31.9801 31.0616 32.4097 29.3486 32.4533 27.5373C32.6299 20.5149 26.9495 14.722 20 14.7198C13.0527 14.722 7.37226 20.5149 7.54888 27.5373C7.5925 29.3486 8.02207 31.0616 8.75474 32.6017C9.31733 33.7786 10.0566 34.855 10.9397 35.7935C10.9942 35.8525 11.0509 35.9116 11.1076 35.9685C12.3244 37.2132 13.1072 38.8255 13.262 40.5625C13.2925 40.8972 13.3078 41.2363 13.3078 41.5776C13.3078 41.8598 13.2991 42.1442 13.2773 42.422H3.5388C1.7311 42.422 0.265747 40.9519 0.265747 39.1384V16.7019C0.265747 15.678 0.743294 14.7111 1.55447 14.092L18.0178 1.49988C19.1888 0.602945 20.8134 0.602945 21.9843 1.49988L38.4477 14.092C39.2589 14.7111 39.7342 15.678 39.7342 16.7019Z" fill="white"/>
<path d="M25.4932 43.2751H14.2938C13.7735 43.2751 13.3518 43.6982 13.3518 44.2202V44.2224C13.3518 44.7444 13.7735 45.1675 14.2938 45.1675H25.4932C26.0135 45.1675 26.4353 44.7444 26.4353 44.2224V44.2202C26.4353 43.6982 26.0135 43.2751 25.4932 43.2751Z" fill="white"/>
<path d="M25.4932 46.0203H14.2938C13.7735 46.0203 13.3518 46.4435 13.3518 46.9655V46.9677C13.3518 47.4896 13.7735 47.9128 14.2938 47.9128H25.4932C26.0135 47.9128 26.4353 47.4896 26.4353 46.9677V46.9655C26.4353 46.4435 26.0135 46.0203 25.4932 46.0203Z" fill="white"/>
<mask id="path-5-inside-1_301_721" fill="white">
<path d="M22.2917 48.7659C22.2917 50.096 21.2188 51.1724 19.893 51.1724C18.5672 51.1724 17.4944 50.096 17.4944 48.7659"/>
</mask>
<path d="M22.2917 48.7659C22.2917 50.096 21.2188 51.1724 19.893 51.1724C18.5672 51.1724 17.4944 50.096 17.4944 48.7659" fill="white"/>
<path d="M22.2917 48.7659H21.8939C21.8939 49.8776 20.9979 50.7746 19.893 50.7746V51.1724V51.5701C21.4397 51.5701 22.6894 50.3145 22.6894 48.7659H22.2917ZM19.893 51.1724V50.7746C18.7881 50.7746 17.8922 49.8776 17.8922 48.7659H17.4944H17.0966C17.0966 50.3145 18.3464 51.5701 19.893 51.5701V51.1724Z" fill="white" mask="url(#path-5-inside-1_301_721)"/>
<path d="M14.2952 43.4744H25.4944C25.9042 43.4745 26.2376 43.8078 26.2376 44.2205V44.2224C26.2376 44.6352 25.9042 44.9685 25.4944 44.9685H14.2952C13.8854 44.9685 13.5521 44.6352 13.5521 44.2224V44.2205C13.5521 43.8077 13.8854 43.4744 14.2952 43.4744Z" fill="white" stroke="white" stroke-width="0.39776"/>
<path d="M14.2952 46.22H25.4944C25.9042 46.2201 26.2376 46.5534 26.2376 46.9661V46.968C26.2376 47.3808 25.9042 47.7141 25.4944 47.7141H14.2952C13.8854 47.7141 13.5521 47.3808 13.5521 46.968V46.9661C13.5521 46.5533 13.8854 46.22 14.2952 46.22Z" fill="white" stroke="white" stroke-width="0.39776"/>
<mask id="path-9-inside-2_301_721" fill="white">
<path d="M22.2928 48.7664C22.2928 50.0965 21.2199 51.1728 19.8941 51.1728C18.5683 51.1728 17.4955 50.0965 17.4955 48.7664"/>
</mask>
<path d="M22.2928 48.7664C22.2928 50.0965 21.2199 51.1728 19.8941 51.1728C18.5683 51.1728 17.4955 50.0965 17.4955 48.7664" fill="white"/>
<path d="M22.2928 48.7664H21.895C21.895 49.878 20.999 50.7751 19.8941 50.7751V51.1728V51.5706C21.4408 51.5706 22.6905 50.315 22.6905 48.7664H22.2928ZM19.8941 51.1728V50.7751C18.7892 50.7751 17.8932 49.878 17.8932 48.7664H17.4955H17.0977C17.0977 50.315 18.3474 51.5706 19.8941 51.5706V51.1728Z" fill="white" mask="url(#path-9-inside-2_301_721)"/>
<path d="M24.6979 30.8359L22.3108 42.4326H16.7979L20.1389 34.7838C20.2438 34.5382 20.0295 34.2779 19.76 34.3227L15.0946 35.1042C14.8108 35.1511 14.5949 34.8615 14.73 34.6144L18.5757 27.5697H15.4863C15.2402 27.5697 15.1285 27.2721 15.3165 27.1181L21.3179 22.1922C21.4681 22.0698 21.6991 22.1431 21.7451 22.3278L22.9679 27.2538C23.0079 27.4143 22.8819 27.5697 22.7113 27.5697H20.4703L19.7645 30.9979C19.7147 31.2391 19.9396 31.4488 20.1857 31.3916L24.2782 30.437C24.5266 30.3791 24.7523 30.5932 24.6979 30.8359Z" fill="white"/>
<path d="M24.6979 30.8359L22.3108 42.4326H16.7979L20.1389 34.7838C20.2438 34.5382 20.0295 34.2779 19.76 34.3227L15.0946 35.1042C14.8108 35.1511 14.5949 34.8615 14.73 34.6144L18.5757 27.5697H15.4863C15.2402 27.5697 15.1285 27.2721 15.3165 27.1181L21.3179 22.1922C21.4681 22.0698 21.6991 22.1431 21.7451 22.3278L22.9679 27.2538C23.0079 27.4143 22.8819 27.5697 22.7113 27.5697H20.4703L19.7645 30.9979C19.7147 31.2391 19.9396 31.4488 20.1857 31.3916L24.2782 30.437C24.5266 30.3791 24.7523 30.5932 24.6979 30.8359Z" fill="white"/>
</svg>
