<svg width="288" height="80" viewBox="0 0 288 80" fill="none" xmlns="http://www.w3.org/2000/svg">
<g filter="url(#filter0_f_336_5)">
<path d="M59.2343 34.8747V57.3112C59.2343 59.1248 57.7711 60.5949 55.9634 60.5949H46.2249C46.2031 60.317 46.1944 60.0326 46.1944 59.7504C46.1944 59.4092 46.2097 59.0701 46.2402 58.7354C46.395 56.9984 47.1778 55.3861 48.3946 54.1413C48.4513 54.0844 48.508 54.0253 48.5625 53.9663C49.4456 53.0278 50.1848 51.9515 50.7474 50.7745C51.4801 49.2344 51.9097 47.5215 51.9533 45.7101C52.1299 38.6877 46.4495 32.8949 39.5 32.8927C32.5527 32.8949 26.8723 38.6877 27.0489 45.7101C27.0925 47.5215 27.5221 49.2344 28.2548 50.7745C28.8173 51.9515 29.5566 53.0278 30.4397 53.9663C30.4942 54.0253 30.5509 54.0844 30.6076 54.1413C31.8244 55.3861 32.6072 56.9984 32.762 58.7354C32.7925 59.0701 32.8078 59.4092 32.8078 59.7504C32.8078 60.0326 32.7991 60.317 32.7773 60.5949H23.0388C21.2311 60.5949 19.7658 59.1248 19.7658 57.3112V34.8747C19.7658 33.8509 20.2433 32.8839 21.0545 32.2648L37.5179 19.6727C38.6888 18.7758 40.3134 18.7758 41.4843 19.6727L57.9477 32.2648C58.7589 32.8839 59.2343 33.8509 59.2343 34.8747Z" fill="white"/>
</g>
<path d="M59.2343 34.8747V57.3112C59.2343 59.1248 57.7711 60.5949 55.9634 60.5949H46.2249C46.2031 60.317 46.1944 60.0326 46.1944 59.7504C46.1944 59.4092 46.2097 59.0701 46.2402 58.7354C46.395 56.9984 47.1778 55.3861 48.3946 54.1413C48.4513 54.0844 48.508 54.0253 48.5625 53.9663C49.4456 53.0278 50.1848 51.9515 50.7474 50.7745C51.4801 49.2344 51.9097 47.5215 51.9533 45.7101C52.1299 38.6877 46.4495 32.8949 39.5 32.8927C32.5527 32.8949 26.8723 38.6877 27.0489 45.7101C27.0925 47.5215 27.5221 49.2344 28.2548 50.7745C28.8173 51.9515 29.5566 53.0278 30.4397 53.9663C30.4942 54.0253 30.5509 54.0844 30.6076 54.1413C31.8244 55.3861 32.6072 56.9984 32.762 58.7354C32.7925 59.0701 32.8078 59.4092 32.8078 59.7504C32.8078 60.0326 32.7991 60.317 32.7773 60.5949H23.0388C21.2311 60.5949 19.7658 59.1248 19.7658 57.3112V34.8747C19.7658 33.8509 20.2433 32.8839 21.0545 32.2648L37.5179 19.6727C38.6888 18.7758 40.3134 18.7758 41.4843 19.6727L57.9477 32.2648C58.7589 32.8839 59.2343 33.8509 59.2343 34.8747Z" fill="white"/>
<g filter="url(#filter1_f_336_5)">
<path d="M44.9932 61.4479H33.7938C33.2735 61.4479 32.8518 61.8711 32.8518 62.3931V62.3953C32.8518 62.9172 33.2735 63.3404 33.7938 63.3404H44.9932C45.5135 63.3404 45.9353 62.9172 45.9353 62.3953V62.3931C45.9353 61.8711 45.5135 61.4479 44.9932 61.4479Z" fill="white"/>
<path d="M44.9932 64.1932H33.7938C33.2735 64.1932 32.8518 64.6163 32.8518 65.1383V65.1405C32.8518 65.6625 33.2735 66.0856 33.7938 66.0856H44.9932C45.5135 66.0856 45.9353 65.6625 45.9353 65.1405V65.1383C45.9353 64.6163 45.5135 64.1932 44.9932 64.1932Z" fill="white"/>
<mask id="path-5-inside-1_336_5" fill="white">
<path d="M41.7917 66.9388C41.7917 68.2689 40.7188 69.3452 39.393 69.3452C38.0672 69.3452 36.9944 68.2689 36.9944 66.9388"/>
</mask>
<path d="M41.7917 66.9388C41.7917 68.2689 40.7188 69.3452 39.393 69.3452C38.0672 69.3452 36.9944 68.2689 36.9944 66.9388" fill="white"/>
<path d="M41.7917 66.9388H41.3939C41.3939 68.0504 40.4979 68.9474 39.393 68.9474V69.3452V69.743C40.9397 69.743 42.1894 68.4873 42.1894 66.9388H41.7917ZM39.393 69.3452V68.9474C38.2881 68.9474 37.3922 68.0504 37.3922 66.9388H36.9944H36.5966C36.5966 68.4873 37.8464 69.743 39.393 69.743V69.3452Z" fill="white" mask="url(#path-5-inside-1_336_5)"/>
</g>
<path d="M33.7952 61.6472H44.9945C45.4042 61.6473 45.7376 61.9806 45.7376 62.3933V62.3953C45.7376 62.808 45.4042 63.1413 44.9945 63.1414H33.7952C33.3854 63.1414 33.0521 62.808 33.0521 62.3953V62.3933C33.0521 61.9805 33.3854 61.6472 33.7952 61.6472Z" fill="white" stroke="white" stroke-width="0.39776"/>
<path d="M33.7952 64.3928H44.9945C45.4042 64.3929 45.7376 64.7262 45.7376 65.1389V65.1409C45.7376 65.5536 45.4042 65.8869 44.9945 65.887H33.7952C33.3854 65.887 33.0521 65.5536 33.0521 65.1409V65.1389C33.0521 64.7262 33.3854 64.3928 33.7952 64.3928Z" fill="white" stroke="white" stroke-width="0.39776"/>
<mask id="path-9-inside-2_336_5" fill="white">
<path d="M41.7928 66.9392C41.7928 68.2693 40.7199 69.3456 39.3941 69.3456C38.0683 69.3456 36.9955 68.2693 36.9955 66.9392"/>
</mask>
<path d="M41.7928 66.9392C41.7928 68.2693 40.7199 69.3456 39.3941 69.3456C38.0683 69.3456 36.9955 68.2693 36.9955 66.9392" fill="white"/>
<path d="M41.7928 66.9392H41.395C41.395 68.0508 40.499 68.9479 39.3941 68.9479V69.3456V69.7434C40.9408 69.7434 42.1905 68.4878 42.1905 66.9392H41.7928ZM39.3941 69.3456V68.9479C38.2892 68.9479 37.3932 68.0508 37.3932 66.9392H36.9955H36.5977C36.5977 68.4878 37.8474 69.7434 39.3941 69.7434V69.3456Z" fill="white" mask="url(#path-9-inside-2_336_5)"/>
<g filter="url(#filter2_f_336_5)">
<path d="M44.1979 49.0087L41.8108 60.6054H36.2979L39.6389 52.9566C39.7438 52.711 39.5295 52.4507 39.26 52.4955L34.5946 53.277C34.3108 53.3239 34.0949 53.0343 34.23 52.7872L38.0757 45.7425H34.9863C34.7402 45.7425 34.6285 45.4449 34.8165 45.2909L40.8179 40.365C40.9681 40.2426 41.1991 40.3159 41.2451 40.5006L42.4679 45.4266C42.5079 45.5871 42.3819 45.7425 42.2113 45.7425H39.9703L39.2645 49.1707C39.2147 49.4119 39.4396 49.6216 39.6857 49.5644L43.7782 48.6098C44.0266 48.5519 44.2523 48.766 44.1979 49.0087Z" fill="white"/>
</g>
<path d="M44.1979 49.0087L41.8108 60.6054H36.2979L39.6389 52.9566C39.7438 52.711 39.5295 52.4507 39.26 52.4955L34.5946 53.277C34.3108 53.3239 34.0949 53.0343 34.23 52.7872L38.0757 45.7425H34.9863C34.7402 45.7425 34.6285 45.4449 34.8165 45.2909L40.8179 40.365C40.9681 40.2426 41.1991 40.3159 41.2451 40.5006L42.4679 45.4266C42.5079 45.5871 42.3819 45.7425 42.2113 45.7425H39.9703L39.2645 49.1707C39.2147 49.4119 39.4396 49.6216 39.6857 49.5644L43.7782 48.6098C44.0266 48.5519 44.2523 48.766 44.1979 49.0087Z" fill="white"/>
<path d="M109.299 55.3969C107.741 55.3969 106.333 55.1302 105.075 54.5969C103.837 54.0635 102.856 53.2955 102.131 52.2929C101.405 51.2902 101.032 50.1062 101.011 48.7409H105.811C105.875 49.6582 106.195 50.3835 106.771 50.9169C107.368 51.4502 108.179 51.7169 109.203 51.7169C110.248 51.7169 111.069 51.4715 111.667 50.9809C112.264 50.4689 112.563 49.8075 112.563 48.9969C112.563 48.3355 112.36 47.7915 111.955 47.3649C111.549 46.9382 111.037 46.6075 110.419 46.3729C109.821 46.1169 108.989 45.8395 107.923 45.5409C106.472 45.1142 105.288 44.6982 104.371 44.2929C103.475 43.8662 102.696 43.2369 102.035 42.4049C101.395 41.5515 101.075 40.4209 101.075 39.0129C101.075 37.6902 101.405 36.5382 102.067 35.5569C102.728 34.5755 103.656 33.8289 104.851 33.3169C106.045 32.7835 107.411 32.5169 108.947 32.5169C111.251 32.5169 113.117 33.0822 114.547 34.2129C115.997 35.3222 116.797 36.8795 116.947 38.8849H112.019C111.976 38.1169 111.645 37.4875 111.027 36.9969C110.429 36.4849 109.629 36.2289 108.627 36.2289C107.752 36.2289 107.048 36.4529 106.515 36.9009C106.003 37.3489 105.747 37.9995 105.747 38.8528C105.747 39.4502 105.939 39.9515 106.323 40.3569C106.728 40.7409 107.219 41.0609 107.795 41.3169C108.392 41.5515 109.224 41.8289 110.291 42.1489C111.741 42.5755 112.925 43.0022 113.843 43.4289C114.76 43.8555 115.549 44.4955 116.211 45.3489C116.872 46.2022 117.203 47.3222 117.203 48.7089C117.203 49.9035 116.893 51.0129 116.275 52.0369C115.656 53.0609 114.749 53.8822 113.555 54.5009C112.36 55.0982 110.941 55.3969 109.299 55.3969ZM138.335 39.7489C138.335 40.9435 138.047 42.0635 137.471 43.1089C136.916 44.1542 136.031 44.9969 134.815 45.6369C133.62 46.2769 132.105 46.5969 130.271 46.5969H126.527V55.1729H122.047V32.8369H130.271C131.999 32.8369 133.471 33.1355 134.687 33.7329C135.903 34.3302 136.809 35.1515 137.407 36.1968C138.025 37.2422 138.335 38.4262 138.335 39.7489ZM130.079 42.9809C131.316 42.9809 132.233 42.7035 132.831 42.1489C133.428 41.5729 133.727 40.7729 133.727 39.7489C133.727 37.5729 132.511 36.4848 130.079 36.4848H126.527V42.9809H130.079ZM156.171 50.9169H147.275L145.803 55.1729H141.099L149.131 32.8048H154.347L162.379 55.1729H157.643L156.171 50.9169ZM154.955 47.3329L151.723 37.9889L148.491 47.3329H154.955ZM177.862 55.1729L172.934 46.4689H170.822V55.1729H166.342V32.8369H174.726C176.454 32.8369 177.926 33.1462 179.142 33.7649C180.358 34.3622 181.264 35.1835 181.862 36.2289C182.48 37.2529 182.79 38.4049 182.79 39.6849C182.79 41.1569 182.363 42.4902 181.51 43.6849C180.656 44.8582 179.387 45.6689 177.702 46.1169L183.046 55.1729H177.862ZM170.822 43.1089H174.566C175.782 43.1089 176.688 42.8209 177.286 42.2449C177.883 41.6475 178.182 40.8262 178.182 39.7809C178.182 38.7569 177.883 37.9675 177.286 37.4129C176.688 36.8369 175.782 36.5489 174.566 36.5489H170.822V43.1089ZM200.41 55.1729L192.282 45.2209V55.1729H187.802V32.8369H192.282V42.8529L200.41 32.8369H205.818L196.602 43.9089L206.074 55.1729H200.41ZM237.093 32.8369V55.1729H232.613V45.6689H223.045V55.1729H218.565V32.8369H223.045V42.0209H232.613V32.8369H237.093ZM246.879 32.8369V46.6609C246.879 48.1755 247.274 49.3382 248.063 50.1489C248.852 50.9382 249.962 51.3329 251.391 51.3329C252.842 51.3329 253.962 50.9382 254.751 50.1489C255.54 49.3382 255.935 48.1755 255.935 46.6609V32.8369H260.447V46.6289C260.447 48.5275 260.031 50.1382 259.199 51.4609C258.388 52.7622 257.29 53.7435 255.903 54.4049C254.538 55.0662 253.012 55.3969 251.327 55.3969C249.663 55.3969 248.148 55.0662 246.783 54.4049C245.439 53.7435 244.372 52.7622 243.583 51.4609C242.794 50.1382 242.399 48.5275 242.399 46.6289V32.8369H246.879ZM278.407 43.7169C279.666 43.9515 280.701 44.5809 281.511 45.6049C282.322 46.6289 282.727 47.8022 282.727 49.1249C282.727 50.3195 282.429 51.3755 281.831 52.2929C281.255 53.1889 280.413 53.8929 279.303 54.4049C278.194 54.9169 276.882 55.1729 275.367 55.1729H265.735V32.8369H274.951C276.466 32.8369 277.767 33.0822 278.855 33.5729C279.965 34.0635 280.797 34.7462 281.351 35.6209C281.927 36.4955 282.215 37.4875 282.215 38.5969C282.215 39.8982 281.863 40.9862 281.159 41.8609C280.477 42.7355 279.559 43.3542 278.407 43.7169ZM270.215 42.0529H274.311C275.378 42.0529 276.199 41.8182 276.775 41.3489C277.351 40.8582 277.639 40.1649 277.639 39.2689C277.639 38.3729 277.351 37.6795 276.775 37.1889C276.199 36.6982 275.378 36.4529 274.311 36.4529H270.215V42.0529ZM274.727 51.5249C275.815 51.5249 276.658 51.2689 277.255 50.7569C277.874 50.2449 278.183 49.5195 278.183 48.5809C278.183 47.6209 277.863 46.8742 277.223 46.3409C276.583 45.7862 275.719 45.5089 274.631 45.5089H270.215V51.5249H274.727Z" fill="white"/>
<defs>
<filter id="filter0_f_336_5" x="0.761694" y="-0.00406647" width="77.4766" height="79.603" filterUnits="userSpaceOnUse" color-interpolation-filters="sRGB">
<feFlood flood-opacity="0" result="BackgroundImageFix"/>
<feBlend mode="normal" in="SourceGraphic" in2="BackgroundImageFix" result="shape"/>
<feGaussianBlur stdDeviation="9.50203" result="effect1_foregroundBlur_336_5"/>
</filter>
<filter id="filter1_f_336_5" x="28.8742" y="57.4703" width="21.0387" height="15.8525" filterUnits="userSpaceOnUse" color-interpolation-filters="sRGB">
<feFlood flood-opacity="0" result="BackgroundImageFix"/>
<feBlend mode="normal" in="SourceGraphic" in2="BackgroundImageFix" result="shape"/>
<feGaussianBlur stdDeviation="1.9888" result="effect1_foregroundBlur_336_5"/>
</filter>
<filter id="filter2_f_336_5" x="15.1846" y="21.3006" width="48.0255" height="58.3089" filterUnits="userSpaceOnUse" color-interpolation-filters="sRGB">
<feFlood flood-opacity="0" result="BackgroundImageFix"/>
<feBlend mode="normal" in="SourceGraphic" in2="BackgroundImageFix" result="shape"/>
<feGaussianBlur stdDeviation="9.50203" result="effect1_foregroundBlur_336_5"/>
</filter>
</defs>
</svg>
