<svg width="46" height="44" viewBox="0 0 46 44" fill="none" xmlns="http://www.w3.org/2000/svg">
<rect width="46" height="44" rx="11.5765" fill="white" fill-opacity="0.03"/>
<g clip-path="url(#clip0_313_979)">
<path d="M39 22C39 13.1634 31.8366 6 23 6C14.1634 6 7 13.1634 7 22C7 29.9861 12.851 36.6053 20.5 37.8056V26.625H16.4375V22H20.5V18.475C20.5 14.465 22.8887 12.25 26.5434 12.25C28.294 12.25 30.125 12.5625 30.125 12.5625V16.5H28.1074C26.1198 16.5 25.5 17.7333 25.5 18.9987V22H29.9375L29.2281 26.625H25.5V37.8056C33.149 36.6053 39 29.9861 39 22Z" fill="#FFC700"/>
<path d="M29.2281 26.625L29.9375 22H25.5V18.9987C25.5 17.7333 26.1198 16.5 28.1074 16.5H30.125V12.5625C30.125 12.5625 28.294 12.25 26.5434 12.25C22.8887 12.25 20.5 14.465 20.5 18.475V22H16.4375V26.625H20.5V37.8056C22.1566 38.0648 23.8434 38.0648 25.5 37.8056V26.625H29.2281Z" fill="white"/>
</g>
<defs>
<clipPath id="clip0_313_979">
<rect width="32" height="32" fill="white" transform="translate(7 6)"/>
</clipPath>
</defs>
</svg>
