<svg width="46" height="44" viewBox="0 0 46 44" fill="none" xmlns="http://www.w3.org/2000/svg">
<rect width="46" height="44" rx="11.5765" fill="white" fill-opacity="0.03"/>
<path d="M11.1736 32.2767H15.5434V21.6825L9.29358 17.0332V30.4221C9.29358 31.4383 10.132 32.2767 11.1736 32.2767Z" fill="#E3B307"/>
<path d="M30.4821 32.2767H34.8519C35.8935 32.2767 36.7319 31.4383 36.7319 30.3966V17.0332L30.5075 21.7079V32.2767H30.4821Z" fill="#B49011"/>
<path d="M30.4821 13.6034V21.7078L36.7065 17.0332V14.5434C36.7065 12.2315 34.0643 10.9104 32.2096 12.3077L30.4821 13.6034Z" fill="#FBBC04"/>
<path fill-rule="evenodd" clip-rule="evenodd" d="M15.5179 21.6824V13.6034L22.9872 19.2181L30.4565 13.6034V21.7078L23.0127 27.2971L15.5179 21.6824Z" fill="#D9AB0B"/>
<path d="M9.29358 14.518V17.0078L15.518 21.6824V13.6034L13.765 12.2823C11.9358 10.9104 9.29358 12.2315 9.29358 14.518Z" fill="#FFD644"/>
</svg>
