<svg width="39" height="40" viewBox="0 0 39 40" fill="none" xmlns="http://www.w3.org/2000/svg">
<rect y="0.5" width="39" height="39" rx="19.5" fill="white" fill-opacity="0.8"/>
<g opacity="0.8">
<path d="M16.6513 25.9002C16.2357 23.7564 14.3488 22.1384 12.0825 22.1384C9.81627 22.1384 7.92931 23.7564 7.51372 25.9002C7.42361 26.3629 7.78943 26.7919 8.26016 26.7919H15.9035C16.3756 26.7919 16.7401 26.3642 16.65 25.9002H16.6513Z" fill="#378394"/>
<path d="M12.085 21.0452C13.3612 21.0452 14.3957 20.0107 14.3957 18.7346C14.3957 17.4584 13.3612 16.424 12.085 16.424C10.8089 16.424 9.77441 17.4584 9.77441 18.7346C9.77441 20.0107 10.8089 21.0452 12.085 21.0452Z" fill="#378394"/>
</g>
<g opacity="0.8">
<path d="M31.4877 25.9002C31.0722 23.7564 29.1852 22.1384 26.9189 22.1384C24.6527 22.1384 22.7657 23.7564 22.3501 25.9002C22.26 26.3629 22.6259 26.7919 23.0966 26.7919H30.7399C31.212 26.7919 31.5765 26.3642 31.4864 25.9002H31.4877Z" fill="#378394"/>
<path d="M26.9215 21.0452C28.1976 21.0452 29.2321 20.0107 29.2321 18.7346C29.2321 17.4584 28.1976 16.424 26.9215 16.424C25.6453 16.424 24.6108 17.4584 24.6108 18.7346C24.6108 20.0107 25.6453 21.0452 26.9215 21.0452Z" fill="#378394"/>
</g>
<foreignObject x="8.84992" y="16.1113" width="21.182" height="15.5271"><div xmlns="http://www.w3.org/1999/xhtml" style="backdrop-filter:blur(2.42px);clip-path:url(#bgblur_0_507_1914_clip_path);height:100%;width:100%"></div></foreignObject><path data-figma-bg-blur-radius="4.84637" d="M25.1698 25.6744C24.648 22.9872 22.2822 20.9576 19.4417 20.9576C16.6011 20.9576 14.2354 22.9872 13.7135 25.6744C13.6005 26.2554 14.0578 26.792 14.6496 26.792H24.2324C24.8242 26.792 25.2814 26.2554 25.1685 25.6744H25.1698Z" fill="#378394"/>
<foreignObject x="11.6946" y="8.94867" width="15.4857" height="15.4853"><div xmlns="http://www.w3.org/1999/xhtml" style="backdrop-filter:blur(2.42px);clip-path:url(#bgblur_1_507_1914_clip_path);height:100%;width:100%"></div></foreignObject><path data-figma-bg-blur-radius="4.84637" d="M20.1027 19.5096C21.6592 19.1423 22.6231 17.5827 22.2558 16.0262C21.8884 14.4698 20.3288 13.5058 18.7723 13.8732C17.2159 14.2405 16.2519 15.8001 16.6193 17.3566C16.9866 18.913 18.5462 19.877 20.1027 19.5096Z" fill="#378394"/>
<defs>
<clipPath id="bgblur_0_507_1914_clip_path" transform="translate(-8.84992 -16.1113)"><path d="M25.1698 25.6744C24.648 22.9872 22.2822 20.9576 19.4417 20.9576C16.6011 20.9576 14.2354 22.9872 13.7135 25.6744C13.6005 26.2554 14.0578 26.792 14.6496 26.792H24.2324C24.8242 26.792 25.2814 26.2554 25.1685 25.6744H25.1698Z"/>
</clipPath><clipPath id="bgblur_1_507_1914_clip_path" transform="translate(-11.6946 -8.94867)"><path d="M20.1027 19.5096C21.6592 19.1423 22.6231 17.5827 22.2558 16.0262C21.8884 14.4698 20.3288 13.5058 18.7723 13.8732C17.2159 14.2405 16.2519 15.8001 16.6193 17.3566C16.9866 18.913 18.5462 19.877 20.1027 19.5096Z"/>
</clipPath></defs>
</svg>
